<svg version="1.1" id="Layer_1" xmlns="http://www.w3.org/2000/svg" xmlns:xlink="http://www.w3.org/1999/xlink" x="0px" y="0px"
	 width="100%" viewBox="0 0 847 702" enable-background="new 0 0 847 702" xml:space="preserve">
<path fill="#FD9D26" opacity="1.000000" stroke="none" 
	d="
M433.000000,703.000000 
	C427.977905,703.000000 422.955811,703.000000 417.251434,702.623413 
	C400.673218,700.834961 384.698669,700.000610 368.903473,697.849243 
	C353.070282,695.692627 337.301453,692.729614 321.710297,689.208435 
	C298.308350,683.923218 275.588684,676.420227 253.335022,667.296082 
	C232.823959,658.886353 213.239288,648.858032 194.583176,637.007141 
	C168.611252,620.508911 145.552338,600.635803 125.543266,577.159241 
	C111.337326,560.491455 99.233353,542.460815 89.111397,523.132019 
	C79.315346,504.425598 71.912933,484.678101 66.289925,464.344116 
	C63.910507,455.739655 62.831776,446.775482 61.426094,438.172180 
	C63.570076,440.895813 65.448006,443.423401 67.329865,445.948090 
	C83.019119,466.996796 99.581520,487.253937 120.159134,504.311218 
	C122.556114,506.582123 124.770561,508.580536 127.012009,510.548187 
	C151.146484,531.734375 177.792206,549.227356 206.207687,564.056152 
	C232.865082,577.967468 260.838531,588.587158 289.665314,597.078918 
	C330.746307,609.180420 372.816437,614.645569 415.488037,615.898132 
	C426.102692,616.209717 436.790100,615.812195 447.376556,614.930115 
	C466.872345,613.305664 486.409912,611.726868 505.766357,608.976746 
	C552.299194,602.365540 596.315918,587.385681 638.374329,566.693665 
	C660.805664,555.657776 682.137695,542.621704 701.921875,527.283020 
	C712.267029,519.262451 722.006470,510.460602 732.305420,501.842773 
	C744.392700,489.311615 756.486572,477.211548 767.888733,464.491516 
	C775.072876,456.476990 781.221802,447.534546 787.899536,439.410767 
	C787.641418,441.236176 787.296753,442.654572 786.999451,444.082794 
	C781.922363,468.475403 773.845825,491.865723 762.895813,514.210144 
	C752.635010,535.148071 739.906921,554.495605 725.100281,572.583618 
	C710.773743,590.085144 694.649658,605.713562 676.834534,619.413574 
	C644.195984,644.512939 607.958191,663.177002 569.005615,676.451111 
	C541.479980,685.831116 513.445618,693.364258 484.521667,696.965820 
	C468.236694,698.993652 451.866638,700.336243 435.539948,702.036011 
	C434.669281,702.126648 433.845551,702.668274 433.000000,703.000000 
z"/>
<path fill="#FFFFFF" opacity="1.000000" stroke="none" 
	d="
M433.468658,703.000000 
	C433.845551,702.668274 434.669281,702.126648 435.539948,702.036011 
	C451.866638,700.336243 468.236694,698.993652 484.521667,696.965820 
	C513.445618,693.364258 541.479980,685.831116 569.005615,676.451111 
	C607.958191,663.177002 644.195984,644.512939 676.834534,619.413574 
	C694.649658,605.713562 710.773743,590.085144 725.100281,572.583618 
	C739.906921,554.495605 752.635010,535.148071 762.895813,514.210144 
	C773.845825,491.865723 781.922363,468.475403 786.999451,444.082794 
	C787.296753,442.654572 787.641418,441.236176 787.984131,439.007782 
	C788.316895,437.455017 788.833557,436.728363 788.911743,435.957275 
	C790.325256,422.003418 791.686035,408.044250 793.410400,393.832947 
	C793.840149,382.882904 793.939392,372.186096 793.953430,361.489166 
	C793.954590,360.628906 793.369507,359.767822 793.034668,358.448975 
	C792.343323,349.789490 792.027161,341.540253 790.921021,333.398315 
	C789.337891,321.745789 787.475647,310.112122 785.172424,298.582306 
	C783.196777,288.691986 780.434753,278.958771 778.338501,268.999207 
	C790.409180,261.900177 802.179504,254.987564 813.907166,248.003265 
	C819.631897,244.593979 825.145020,240.808929 830.988586,237.624451 
	C840.169556,232.621185 844.869019,224.448166 848.000000,215.000000 
	C848.000000,377.587860 848.000000,540.175720 848.000000,703.000000 
	C709.979187,703.000000 571.958252,703.000000 433.468658,703.000000 
z"/>
<path fill="#FFFFFF" opacity="1.000000" stroke="none" 
	d="
M61.161850,437.974823 
	C62.831776,446.775482 63.910507,455.739655 66.289925,464.344116 
	C71.912933,484.678101 79.315346,504.425598 89.111397,523.132019 
	C99.233353,542.460815 111.337326,560.491455 125.543266,577.159241 
	C145.552338,600.635803 168.611252,620.508911 194.583176,637.007141 
	C213.239288,648.858032 232.823959,658.886353 253.335022,667.296082 
	C275.588684,676.420227 298.308350,683.923218 321.710297,689.208435 
	C337.301453,692.729614 353.070282,695.692627 368.903473,697.849243 
	C384.698669,700.000610 400.673218,700.834961 416.784576,702.623413 
	C278.400452,703.000000 139.800873,703.000000 1.000000,703.000000 
	C1.000000,540.645813 1.000000,378.291565 1.349602,215.628357 
	C3.176024,223.791016 7.345159,230.641479 14.638213,235.191971 
	C27.326317,243.108749 40.208412,250.713989 52.977299,258.502136 
	C59.741154,262.627594 66.437912,266.863098 73.095886,271.437195 
	C71.469490,277.304840 69.761559,282.746521 68.380905,288.270050 
	C62.416634,312.130951 57.351082,336.141846 56.606079,361.140808 
	C56.169880,362.054291 55.995132,362.712952 56.016964,363.364990 
	C56.668728,382.833252 57.155186,402.310120 58.126980,421.762665 
	C58.398792,427.203674 60.110600,432.572754 61.161850,437.974823 
z"/>
<path fill="#FCD729" opacity="1.000000" stroke="none" 
	d="
M406.000000,0.999999 
	C420.020905,1.000000 434.041779,1.000000 448.752808,1.368413 
	C454.694153,2.157444 459.955170,2.482713 465.194489,3.019649 
	C474.490906,3.972373 483.920197,4.348404 493.031036,6.235139 
	C509.451019,9.635509 525.756897,13.672554 541.966370,17.984837 
	C570.134766,25.478586 596.302002,37.636108 620.805176,53.341270 
	C629.047913,58.624416 636.943787,64.448669 644.865234,70.332962 
	C636.131653,80.993454 627.384277,91.229233 618.982239,101.741058 
	C613.377380,108.753326 606.274109,110.656700 597.736511,109.835289 
	C585.515076,108.659439 573.258118,107.853745 560.731689,106.627853 
	C559.800964,106.220978 559.161621,106.007019 558.507507,105.941650 
	C543.656067,104.457367 528.753235,103.366318 513.963928,101.414307 
	C498.573456,99.382957 488.808289,107.085991 487.900085,122.988342 
	C480.991699,133.812027 484.355804,143.662933 489.885864,153.253677 
	C492.777832,158.269165 496.020386,163.082520 498.629395,167.990204 
	C448.724274,167.989243 399.294373,167.985260 349.967773,167.642822 
	C354.479919,159.003021 359.673920,151.004562 363.032623,142.298111 
	C365.432281,136.077637 365.396667,128.902725 360.181366,122.680069 
	C361.862701,108.607811 348.813782,99.851280 338.906952,101.009407 
	C321.316345,103.065765 303.665375,104.605873 285.623566,106.313866 
	C272.675018,107.504105 260.150299,108.829597 247.607040,109.946335 
	C240.666428,110.564262 235.018753,107.946671 230.595062,102.492477 
	C227.151321,98.246513 223.488037,94.178612 219.786316,89.728653 
	C215.370316,83.896271 211.090347,78.366821 207.005554,72.555428 
	C216.395706,65.755890 225.399902,58.946495 234.826736,52.783554 
	C252.554291,41.193897 271.554382,32.089127 291.444092,24.789150 
	C312.785217,16.956486 334.623444,10.867058 357.027283,7.221398 
	C372.054047,4.776175 387.304230,3.708078 402.449066,1.976826 
	C403.654175,1.839065 404.817352,1.334238 406.000000,0.999999 
M356.603088,31.065826 
	C350.404999,32.989594 343.984863,34.400066 338.062592,36.961517 
	C329.873016,40.503590 321.711243,44.361225 314.179749,49.103573 
	C306.498230,53.940376 307.323273,60.461250 315.451782,64.685776 
	C317.804291,65.908424 320.278839,66.974266 322.804504,67.773827 
	C350.976990,76.692551 380.211212,78.713303 409.397064,79.723030 
	C429.613678,80.422462 449.984283,79.505997 470.157135,77.792854 
	C488.296661,76.252380 506.332092,73.030586 524.260803,69.723137 
	C530.100281,68.645897 535.857971,65.579224 540.925476,62.298580 
	C545.991882,59.018639 545.769165,55.407127 541.560425,51.099415 
	C540.292297,49.801468 538.935669,48.405708 537.338623,47.643700 
	C528.061768,43.217430 519.030273,37.929886 509.309174,34.844898 
	C475.722107,24.186052 441.256256,19.220079 406.029510,23.104212 
	C389.735077,24.900846 373.613525,28.264904 356.603088,31.065826 
z"/>
<path fill="#FFFFFF" opacity="1.000000" stroke="none" 
	d="
M405.531342,0.999999 
	C404.817352,1.334238 403.654175,1.839065 402.449066,1.976826 
	C387.304230,3.708078 372.054047,4.776175 357.027283,7.221398 
	C334.623444,10.867058 312.785217,16.956486 291.444092,24.789150 
	C271.554382,32.089127 252.554291,41.193897 234.826736,52.783554 
	C225.399902,58.946495 216.395706,65.755890 206.716278,72.417091 
	C205.554245,71.844475 204.843216,71.156815 204.204361,70.407608 
	C197.813751,62.912971 191.435013,55.408211 184.882202,47.620022 
	C180.917480,42.763268 177.064102,38.240509 173.343369,33.611141 
	C167.757812,26.661514 160.630157,23.890707 151.985840,26.073879 
	C144.454208,27.976042 139.814865,33.048370 138.033630,40.628258 
	C136.376495,47.680042 134.719925,54.733303 133.190018,61.813339 
	C130.372116,74.854095 127.647263,87.914963 124.614105,101.240646 
	C122.554497,109.742310 120.385910,117.910767 119.069283,126.214317 
	C117.391403,136.796188 111.325630,142.763092 101.467354,146.121643 
	C94.131378,148.620865 87.132614,152.109879 79.617340,155.147003 
	C60.735733,162.627090 42.337864,170.429611 23.654396,177.474716 
	C14.648003,180.870819 9.972547,186.748886 8.620537,196.112259 
	C5.867261,200.148376 3.433631,204.074188 1.000001,208.000000 
	C1.000000,139.049347 1.000000,70.098679 1.000000,1.000000 
	C135.687531,1.000000 270.375092,1.000000 405.531342,0.999999 
z"/>
<path fill="#FFFFFF" opacity="1.000000" stroke="none" 
	d="
M644.998230,70.025620 
	C636.943787,64.448669 629.047913,58.624416 620.805176,53.341270 
	C596.302002,37.636108 570.134766,25.478586 541.966370,17.984837 
	C525.756897,13.672554 509.451019,9.635509 493.031036,6.235139 
	C483.920197,4.348404 474.490906,3.972373 465.194489,3.019649 
	C459.955170,2.482713 454.694153,2.157444 449.221466,1.368413 
	C581.903931,1.000000 714.807861,1.000000 848.000000,1.000000 
	C848.000000,69.687294 848.000000,138.374985 847.655029,207.378387 
	C846.735657,202.609070 844.088318,198.796249 840.010010,195.463745 
	C838.634521,185.974121 833.379944,180.463135 824.793701,177.265961 
	C813.470886,173.049805 802.407410,168.141754 791.187622,163.643082 
	C778.143616,158.412964 765.051086,153.303955 751.666016,147.962463 
	C749.837708,147.131058 748.369324,146.325821 746.800781,145.853226 
	C737.319946,142.996628 731.773376,136.811310 730.109802,126.970505 
	C729.313660,122.261108 727.957153,117.646454 726.884155,112.590469 
	C725.601562,106.210388 724.353577,100.213760 722.963501,94.250275 
	C720.299255,82.820747 717.554382,71.410042 714.883057,59.582394 
	C713.354614,52.255009 712.266602,45.183453 710.118896,38.449940 
	C705.439087,23.778158 687.145203,20.991297 677.521179,31.308222 
	C666.039612,43.616421 655.784607,57.068855 644.998230,70.025620 
z"/>
<path fill="#FD7E27" opacity="1.000000" stroke="none" 
	d="
M840.037781,195.844635 
	C844.088318,198.796249 846.735657,202.609070 847.655029,207.847046 
	C848.000000,210.041672 848.000000,212.083328 848.000000,214.562500 
	C844.869019,224.448166 840.169556,232.621185 830.988586,237.624451 
	C825.145020,240.808929 819.631897,244.593979 813.907166,248.003265 
	C802.179504,254.987564 790.409180,261.900177 777.990112,269.018616 
	C768.890869,274.093140 760.482849,279.034760 752.015686,283.872894 
	C747.151123,286.652527 743.054138,290.070526 740.905945,295.451080 
	C740.648193,296.096497 739.759460,296.489990 739.146729,296.578430 
	C739.426453,292.721130 739.959412,289.286804 739.976318,285.849976 
	C740.037842,273.334351 743.595703,263.589569 755.751404,256.907928 
	C780.391785,243.363861 804.295044,228.482224 828.576172,214.278595 
	C834.951111,210.549515 838.772583,205.482544 839.069397,197.959824 
	C839.097656,197.243149 839.701294,196.549164 840.037781,195.844635 
z"/>
<path fill="#FD7E27" opacity="1.000000" stroke="none" 
	d="
M1.000001,208.437500 
	C3.433631,204.074188 5.867261,200.148376 8.652077,196.505463 
	C11.051936,201.361328 12.178385,206.783600 15.397294,210.278870 
	C18.925581,214.110077 24.384586,216.163223 29.226351,219.244843 
	C43.949966,228.037857 58.449463,236.577209 73.146942,245.396210 
	C81.645447,250.506592 89.971909,255.293503 98.236557,260.184845 
	C103.039299,263.027313 106.148926,267.278503 106.985558,272.781799 
	C107.699326,277.476807 107.798332,282.265289 108.239189,287.411560 
	C108.522148,291.196320 108.735191,294.582001 108.742119,297.689056 
	C106.782951,294.493408 105.628693,290.846405 103.150414,288.813477 
	C98.210091,284.760986 92.662369,281.392365 87.137802,278.126526 
	C82.652847,275.475250 77.835114,273.386902 73.164963,271.048920 
	C66.437912,266.863098 59.741154,262.627594 52.977299,258.502136 
	C40.208412,250.713989 27.326317,243.108749 14.638213,235.191971 
	C7.345159,230.641479 3.176024,223.791016 1.349602,215.159698 
	C1.000000,212.958328 1.000000,210.916672 1.000001,208.437500 
z"/>
<path fill="#FBC320" opacity="1.000000" stroke="none" 
	d="
M61.426094,438.172180 
	C60.110600,432.572754 58.398792,427.203674 58.126980,421.762665 
	C57.155186,402.310120 56.668728,382.833252 56.016964,363.364990 
	C55.995132,362.712952 56.169880,362.054291 56.617416,361.616913 
	C56.989845,366.476624 57.227272,371.132446 56.938564,375.755432 
	C56.672642,380.013580 58.459423,381.167511 62.453144,381.057770 
	C79.658012,380.585022 96.868790,380.327728 114.283966,380.342926 
	C114.678185,384.007141 114.733154,387.334473 115.080360,390.630981 
	C115.875191,398.177582 118.671310,404.618225 126.227127,407.623077 
	C133.178879,410.387756 139.915451,410.055725 145.836853,404.838379 
	C167.671265,385.600189 189.715515,366.592133 211.221268,346.993164 
	C219.066254,339.843719 226.917953,337.718536 237.177353,340.424103 
	C264.851715,347.722351 292.671356,354.475372 320.474609,361.276001 
	C329.203918,363.411194 337.719482,362.540558 343.849976,355.297516 
	C346.716034,351.911346 347.943420,347.138214 350.387604,342.995270 
	C400.269562,342.996063 449.677429,342.995270 499.286591,343.294495 
	C502.370453,356.432495 509.710327,362.306274 522.840637,361.978699 
	C525.795471,361.904968 528.781067,361.273621 531.668213,360.558655 
	C559.617249,353.637299 587.554565,346.667664 615.480286,339.652740 
	C622.479980,337.894440 628.781067,339.214020 634.161133,343.906219 
	C644.190002,352.652832 654.023132,361.623413 663.995667,370.435120 
	C676.956970,381.887543 690.006348,393.240326 702.954529,404.707520 
	C709.062683,410.117065 716.071350,410.501709 723.036011,407.612579 
	C730.592163,404.478088 733.362488,397.709259 733.968811,389.906525 
	C734.225647,386.601044 734.615356,383.305939 735.416809,380.004608 
	C754.915405,379.999878 773.941895,379.996643 792.979248,380.459290 
	C793.012756,385.312195 793.035400,389.699188 793.057983,394.086182 
	C791.686035,408.044250 790.325256,422.003418 788.911743,435.957275 
	C788.833557,436.728363 788.316895,437.455017 787.919739,438.605347 
	C781.221802,447.534546 775.072876,456.476990 767.888733,464.491516 
	C756.486572,477.211548 744.392700,489.311615 731.907593,501.859558 
	C728.668030,502.693054 726.114197,503.897125 723.556519,503.905396 
	C685.455383,504.028320 647.353638,504.018646 609.252502,503.898102 
	C607.785461,503.893463 606.322815,502.462097 604.955750,501.378235 
	C620.541809,480.059204 631.124268,456.914398 635.937561,431.170044 
	C638.179932,419.176178 630.912170,405.483063 619.769287,402.404755 
	C613.627502,400.708038 607.227844,399.893097 600.910706,398.894196 
	C590.390747,397.230713 579.860474,395.613068 569.303162,394.211761 
	C559.660217,392.931824 549.991821,391.786072 540.304932,390.909729 
	C530.774353,390.047516 521.203064,389.644043 511.655548,388.956848 
	C498.499573,388.009888 485.357727,386.844299 472.193420,386.041901 
	C462.768372,385.467407 453.314697,385.023041 443.876740,385.073120 
	C426.434601,385.165680 408.982361,385.360565 391.556641,386.064941 
	C366.585541,387.074310 341.618011,388.329773 316.681549,389.974091 
	C303.694611,390.830444 290.734283,392.440674 277.840698,394.266357 
	C264.498077,396.155640 251.267273,398.821228 237.956696,400.954590 
	C226.563248,402.780670 217.134872,413.201355 217.036530,424.768860 
	C216.924347,437.964020 221.729965,450.069336 227.283157,461.526642 
	C234.005341,475.395844 242.382462,488.462952 249.897247,502.250793 
	C247.918213,503.082916 246.087799,503.927643 244.252090,503.939362 
	C227.947449,504.043365 211.641891,503.997070 195.336594,504.000702 
	C170.220779,504.006317 145.104965,504.016266 119.989143,504.024414 
	C99.581520,487.253937 83.019119,466.996796 67.329865,445.948090 
	C65.448006,443.423401 63.570076,440.895813 61.426094,438.172180 
z"/>
<path fill="#FABB1C" opacity="1.000000" stroke="none" 
	d="
M120.159134,504.311218 
	C145.104965,504.016266 170.220779,504.006317 195.336594,504.000702 
	C211.641891,503.997070 227.947449,504.043365 244.252090,503.939362 
	C246.087799,503.927643 247.918213,503.082916 250.184784,502.428650 
	C274.409058,533.251221 305.300446,554.414856 342.231079,566.385803 
	C356.175781,570.905884 370.868073,573.420105 385.395996,575.747131 
	C397.412476,577.671814 409.675507,578.536865 421.853729,578.819885 
	C431.537079,579.044922 441.304993,578.079529 450.949677,576.925964 
	C464.353485,575.322754 477.814117,573.700928 491.006592,570.927368 
	C518.411377,565.166016 543.827637,554.474365 566.788940,538.193237 
	C581.303406,527.901550 593.639404,515.395386 604.858154,501.695557 
	C606.322815,502.462097 607.785461,503.893463 609.252502,503.898102 
	C647.353638,504.018646 685.455383,504.028320 723.556519,503.905396 
	C726.114197,503.897125 728.668030,502.693054 731.621582,502.028381 
	C722.006470,510.460602 712.267029,519.262451 701.921875,527.283020 
	C682.137695,542.621704 660.805664,555.657776 638.374329,566.693665 
	C596.315918,587.385681 552.299194,602.365540 505.766357,608.976746 
	C486.409912,611.726868 466.872345,613.305664 447.376556,614.930115 
	C436.790100,615.812195 426.102692,616.209717 415.488037,615.898132 
	C372.816437,614.645569 330.746307,609.180420 289.665314,597.078918 
	C260.838531,588.587158 232.865082,577.967468 206.207687,564.056152 
	C177.792206,549.227356 151.146484,531.734375 127.012009,510.548187 
	C124.770561,508.580536 122.556114,506.582123 120.159134,504.311218 
z"/>
<path fill="#FBC922" opacity="1.000000" stroke="none" 
	d="
M792.968384,379.993408 
	C773.941895,379.996643 754.915405,379.999878 735.409790,379.553253 
	C734.929932,376.399750 734.929199,373.696136 734.956665,370.528076 
	C735.657593,360.042480 736.419434,350.026276 736.981873,339.998871 
	C737.785522,325.670288 738.443237,311.333527 739.163269,297.000244 
	C739.759460,296.489990 740.648193,296.096497 740.905945,295.451080 
	C743.054138,290.070526 747.151123,286.652527 752.015686,283.872894 
	C760.482849,279.034760 768.890869,274.093140 777.672119,269.175476 
	C780.434753,278.958771 783.196777,288.691986 785.172424,298.582306 
	C787.475647,310.112122 789.337891,321.745789 790.921021,333.398315 
	C792.027161,341.540253 792.343323,349.789490 793.018555,358.922546 
	C793.005981,366.567352 792.987183,373.280365 792.968384,379.993408 
z"/>
<path fill="#FDA625" opacity="1.000000" stroke="none" 
	d="
M792.979248,380.459290 
	C792.987183,373.280365 793.005981,366.567352 793.040833,359.380737 
	C793.369507,359.767822 793.954590,360.628906 793.953430,361.489166 
	C793.939392,372.186096 793.840149,382.882904 793.410400,393.832947 
	C793.035400,389.699188 793.012756,385.312195 792.979248,380.459290 
z"/>
<path fill="#FBC922" opacity="1.000000" stroke="none" 
	d="
M114.077423,379.992035 
	C96.868790,380.327728 79.658012,380.585022 62.453144,381.057770 
	C58.459423,381.167511 56.672642,380.013580 56.938564,375.755432 
	C57.227272,371.132446 56.989845,366.476624 56.970497,361.359009 
	C57.351082,336.141846 62.416634,312.130951 68.380905,288.270050 
	C69.761559,282.746521 71.469490,277.304840 73.095886,271.437195 
	C77.835114,273.386902 82.652847,275.475250 87.137802,278.126526 
	C92.662369,281.392365 98.210091,284.760986 103.150414,288.813477 
	C105.628693,290.846405 106.782951,294.493408 108.809174,298.137634 
	C109.405533,305.295166 109.690468,311.727722 110.063820,318.155151 
	C110.370003,323.426086 110.749527,328.693329 111.152496,333.957916 
	C112.094948,346.270569 113.071014,358.580688 113.878952,371.194885 
	C113.842102,374.329315 113.959763,377.160675 114.077423,379.992035 
z"/>
<path fill="#FBCE25" opacity="1.000000" stroke="none" 
	d="
M499.085266,342.994507 
	C449.677429,342.995270 400.269562,342.996063 350.379974,342.576294 
	C348.342285,335.473175 346.786346,328.790588 345.153137,321.651611 
	C344.509155,317.126862 344.688873,312.766663 343.234161,309.045441 
	C339.056610,298.358917 334.177887,287.947968 329.648102,277.397186 
	C323.038910,262.003052 316.493744,246.581390 310.092773,230.866608 
	C311.697021,228.330643 313.143829,226.108398 314.560272,223.867004 
	C326.331512,205.240433 338.097137,186.610321 349.864471,167.981277 
	C399.294373,167.985260 448.724274,167.989243 498.872314,168.211823 
	C512.742432,189.316788 525.894470,210.203201 539.004700,231.450226 
	C533.003479,245.874680 527.044067,259.938507 520.885864,274.298462 
	C515.708984,285.969116 510.450653,297.232971 505.894440,308.774048 
	C504.137604,313.224274 503.976013,318.304230 503.005554,323.453278 
	C501.644104,330.204346 500.364685,336.599426 499.085266,342.994507 
z"/>
<path fill="#FDFBA5" opacity="1.000000" stroke="none" 
	d="
M114.033463,370.891815 
	C113.071014,358.580688 112.094948,346.270569 111.152496,333.957916 
	C110.749527,328.693329 110.370003,323.426086 110.063820,318.155151 
	C109.690468,311.727722 109.405533,305.295166 109.015289,298.416229 
	C108.735191,294.582001 108.522148,291.196320 108.589096,287.389893 
	C110.609070,285.783142 112.598618,284.843781 114.051086,283.373718 
	C132.056595,265.150238 150.009796,246.874817 167.915497,228.553146 
	C173.255783,223.088821 178.314819,217.349472 183.660538,211.890671 
	C203.331909,191.803253 222.976151,171.687683 242.816895,151.768265 
	C254.903366,139.633881 267.427612,127.935760 279.530151,115.816948 
	C282.189453,113.154083 283.894958,109.538696 286.039673,106.361954 
	C303.665375,104.605873 321.316345,103.065765 338.906952,101.009407 
	C348.813782,99.851280 361.862701,108.607811 360.107849,123.052231 
	C358.043274,127.915436 355.966949,131.960861 353.535889,136.024872 
	C352.082214,136.697876 350.785614,137.156509 349.914307,138.036301 
	C338.216827,149.847977 326.637695,161.777679 314.856598,173.504669 
	C313.252563,175.101318 310.712585,175.757721 308.749390,176.528290 
	C318.497314,162.818039 328.104126,149.430618 337.705261,136.039154 
	C342.189026,129.785385 341.838745,123.405037 336.817200,119.622002 
	C332.030396,116.015816 324.395630,117.625092 320.289795,123.301292 
	C301.850525,148.793228 283.512634,174.358612 265.018158,199.810303 
	C261.742249,204.318542 261.242737,208.694855 263.293610,213.829391 
	C272.058258,235.772446 280.667084,257.777740 289.320282,279.765289 
	C290.855164,283.665436 292.330750,287.588928 294.209534,292.479980 
	C291.218384,291.838013 289.460175,291.525665 287.736176,291.080872 
	C264.058289,284.972076 240.410141,278.745300 216.692444,272.795685 
	C211.072174,271.385834 205.298218,270.576050 200.341553,275.374634 
	C178.099014,296.907684 155.696533,318.276245 133.568512,339.925690 
	C131.555649,341.895020 130.457413,345.351196 130.037109,348.275391 
	C129.283463,353.518829 133.453888,356.143372 136.756454,359.126099 
	C133.741653,360.995331 130.733948,362.306427 128.310089,364.320190 
	C124.269821,367.676941 120.603416,371.483673 116.512970,374.910095 
	C115.508705,373.443420 114.771080,372.167603 114.033463,370.891815 
z"/>
<path fill="#FDF69B" opacity="1.000000" stroke="none" 
	d="
M285.623566,106.313866 
	C283.894958,109.538696 282.189453,113.154083 279.530151,115.816948 
	C267.427612,127.935760 254.903366,139.633881 242.816895,151.768265 
	C222.976151,171.687683 203.331909,191.803253 183.660538,211.890671 
	C178.314819,217.349472 173.255783,223.088821 167.915497,228.553146 
	C150.009796,246.874817 132.056595,265.150238 114.051086,283.373718 
	C112.598618,284.843781 110.609070,285.783142 108.519196,286.990784 
	C107.798332,282.265289 107.699326,277.476807 106.985558,272.781799 
	C106.148926,267.278503 103.039299,263.027313 98.236557,260.184845 
	C89.971909,255.293503 81.645447,250.506592 73.213280,245.040344 
	C74.575874,242.248459 75.788429,239.812561 77.607910,237.978882 
	C95.894623,219.549438 114.327026,201.264297 132.562881,182.785049 
	C134.253464,181.071930 134.873779,178.302628 136.324173,175.866882 
	C141.046402,174.209381 145.374680,172.487625 149.838852,171.259995 
	C156.524841,169.421356 159.365921,165.106781 160.125397,158.357452 
	C160.895279,151.515793 162.643509,144.784210 164.186127,138.229080 
	C167.231064,143.132843 169.254730,139.130692 170.840637,137.531738 
	C185.351929,122.901146 199.674164,108.083069 214.172607,93.439529 
	C215.689301,91.907646 217.986984,91.148987 219.922318,90.031578 
	C223.488037,94.178612 227.151321,98.246513 230.595062,102.492477 
	C235.018753,107.946671 240.666428,110.564262 247.607040,109.946335 
	C260.150299,108.829597 272.675018,107.504105 285.623566,106.313866 
z"/>
<path fill="#FDEA51" opacity="1.000000" stroke="none" 
	d="
M357.008331,30.992077 
	C373.613525,28.264904 389.735077,24.900846 406.029510,23.104212 
	C441.256256,19.220079 475.722107,24.186052 509.309174,34.844898 
	C519.030273,37.929886 528.061768,43.217430 537.338623,47.643700 
	C538.935669,48.405708 540.292297,49.801468 541.560425,51.099415 
	C545.769165,55.407127 545.991882,59.018639 540.925476,62.298580 
	C535.857971,65.579224 530.100281,68.645897 524.260803,69.723137 
	C506.332092,73.030586 488.296661,76.252380 470.157135,77.792854 
	C449.984283,79.505997 429.613678,80.422462 409.397064,79.723030 
	C380.211212,78.713303 350.976990,76.692551 322.804504,67.773827 
	C320.278839,66.974266 317.804291,65.908424 315.451782,64.685776 
	C307.323273,60.461250 306.498230,53.940376 314.179749,49.103573 
	C321.711243,44.361225 329.873016,40.503590 338.062592,36.961517 
	C343.984863,34.400066 350.404999,32.989594 357.008331,30.992077 
z"/>
<path fill="#FDF393" opacity="1.000000" stroke="none" 
	d="
M644.865234,70.332962 
	C655.784607,57.068855 666.039612,43.616421 677.521179,31.308222 
	C687.145203,20.991297 705.439087,23.778158 710.118896,38.449940 
	C712.266602,45.183453 713.354614,52.255009 714.533447,59.603558 
	C712.995972,60.610886 711.715088,61.017551 710.722900,61.793369 
	C705.423828,65.936867 700.341675,70.376839 694.862610,74.260117 
	C693.065674,75.533684 690.303467,75.445404 688.046753,75.631355 
	C689.620422,72.709831 691.149780,70.148125 692.635742,67.561501 
	C695.738953,62.159935 694.658752,55.018543 690.342896,52.256653 
	C684.948914,48.804848 678.025757,50.417885 674.301758,56.113380 
	C668.571167,64.877884 662.924866,73.697426 657.235596,82.488907 
	C648.281738,96.324898 639.423889,110.225616 630.227966,123.898918 
	C629.148010,125.504608 626.112610,126.801300 624.120667,126.631752 
	C604.287720,124.943665 584.479614,122.956718 564.674255,120.956543 
	C560.096924,120.494263 555.557068,119.659843 551.063110,118.658409 
	C552.726624,116.561371 554.364075,114.834549 555.917664,113.035263 
	C557.656799,111.021057 559.320068,108.941254 561.016296,106.889992 
	C573.258118,107.853745 585.515076,108.659439 597.736511,109.835289 
	C606.274109,110.656700 613.377380,108.753326 618.982239,101.741058 
	C627.384277,91.229233 636.131653,80.993454 644.865234,70.332962 
z"/>
<path fill="#FDF291" opacity="1.000000" stroke="none" 
	d="
M219.786316,89.728645 
	C217.986984,91.148987 215.689301,91.907646 214.172607,93.439529 
	C199.674164,108.083069 185.351929,122.901146 170.840637,137.531738 
	C169.254730,139.130692 167.231064,143.132843 164.196381,137.781677 
	C164.101822,134.962845 164.033096,132.786545 164.367340,130.673981 
	C167.207672,112.722443 169.856552,94.733543 173.160477,76.866348 
	C174.276428,70.831413 173.299652,66.145683 169.340927,61.944553 
	C174.810364,57.224812 179.931641,52.565559 185.052933,47.906303 
	C191.435013,55.408211 197.813751,62.912971 204.204361,70.407608 
	C204.843216,71.156815 205.554245,71.844475 206.521088,72.699028 
	C211.090347,78.366821 215.370316,83.896271 219.786316,89.728645 
z"/>
<path fill="#FDED88" opacity="1.000000" stroke="none" 
	d="
M560.731689,106.627853 
	C559.320068,108.941254 557.656799,111.021057 555.917664,113.035263 
	C554.364075,114.834549 552.726624,116.561371 550.614563,118.658081 
	C544.021423,118.485435 537.927429,118.090820 531.861450,117.436272 
	C523.408691,116.524200 516.791199,124.048813 519.802368,131.431915 
	C520.603577,133.396484 521.959656,135.134781 522.765076,137.145020 
	C516.503479,141.932755 510.537720,146.552444 504.330017,150.950165 
	C498.779724,141.389694 493.471436,132.051208 488.163116,122.712708 
	C488.808289,107.085991 498.573456,99.382957 513.963928,101.414307 
	C528.753235,103.366318 543.656067,104.457367 558.507507,105.941650 
	C559.161621,106.007019 559.800964,106.220978 560.731689,106.627853 
z"/>
<path fill="#FD7F27" opacity="1.000000" stroke="none" 
	d="
M487.900085,122.988342 
	C493.471436,132.051208 498.779724,141.389694 504.471619,151.276886 
	C514.918457,167.858734 524.981750,183.891922 535.139282,200.258453 
	C536.449158,202.568375 537.586182,204.598587 538.893799,206.512253 
	C544.478760,214.685822 544.450562,222.863297 539.046509,231.089615 
	C525.894470,210.203201 512.742432,189.316788 499.347504,168.208771 
	C496.020386,163.082520 492.777832,158.269165 489.885864,153.253677 
	C484.355804,143.662933 480.991699,133.812027 487.900085,122.988342 
z"/>
<path fill="#FD7F27" opacity="1.000000" stroke="none" 
	d="
M353.890656,136.006287 
	C355.966949,131.960861 358.043274,127.915436 360.193054,123.497864 
	C365.396667,128.902725 365.432281,136.077637 363.032623,142.298111 
	C359.673920,151.004562 354.479919,159.003021 349.967773,167.642822 
	C338.097137,186.610321 326.331512,205.240433 314.560272,223.867004 
	C313.143829,226.108398 311.697021,228.330643 309.833618,230.619949 
	C304.411957,221.827560 305.231567,213.756973 310.846863,205.063431 
	C325.562042,182.281586 339.589264,159.055389 353.890656,136.006287 
z"/>
<path fill="#FDF18F" opacity="1.000000" stroke="none" 
	d="
M79.983658,155.158051 
	C87.132614,152.109879 94.131378,148.620865 101.467354,146.121643 
	C111.325630,142.763092 117.391403,136.796188 119.069283,126.214317 
	C120.385910,117.910767 122.554497,109.742310 124.962708,101.191772 
	C132.204041,94.596329 138.789963,88.282768 145.476791,82.077965 
	C147.140015,80.534645 149.129425,79.342857 150.978821,78.416443 
	C150.922867,79.836380 150.940598,80.843208 150.778809,81.820312 
	C147.207474,103.390053 143.494736,124.937607 140.137131,146.540405 
	C139.507751,150.589859 137.899155,152.627960 134.074051,153.878937 
	C111.966820,161.109024 89.928154,168.548584 67.847328,175.859970 
	C65.979721,176.478363 63.972851,176.676178 62.083153,176.726532 
	C64.600098,173.579437 67.121101,170.822479 69.515709,167.959778 
	C73.052193,163.731995 76.498787,159.429001 79.983658,155.158051 
z"/>
<path fill="#FDED86" opacity="1.000000" stroke="none" 
	d="
M150.968887,77.989487 
	C149.129425,79.342857 147.140015,80.534645 145.476791,82.077965 
	C138.789963,88.282768 132.204041,94.596329 125.232224,100.918571 
	C127.647263,87.914963 130.372116,74.854095 133.190018,61.813339 
	C134.719925,54.733303 136.376495,47.680042 138.033630,40.628258 
	C139.814865,33.048370 144.454208,27.976042 151.985840,26.073879 
	C160.630157,23.890707 167.757812,26.661514 173.343369,33.611141 
	C177.064102,38.240509 180.917480,42.763268 184.882202,47.620026 
	C179.931641,52.565559 174.810364,57.224812 168.944092,61.864780 
	C158.355209,59.337593 153.370178,62.661278 151.948318,72.641586 
	C151.692917,74.434341 151.298889,76.207359 150.968887,77.989487 
z"/>
<path fill="#FDEE89" opacity="1.000000" stroke="none" 
	d="
M79.617340,155.147003 
	C76.498787,159.429001 73.052193,163.731995 69.515709,167.959778 
	C67.121101,170.822479 64.600098,173.579437 61.828720,176.967926 
	C55.591103,179.677063 49.457958,181.382431 43.815620,184.104980 
	C41.020733,185.453583 38.468147,188.323639 36.980621,191.128372 
	C34.629940,195.560608 37.610874,199.356110 39.951256,203.311295 
	C37.135445,206.723404 34.199394,209.655304 31.708870,212.926376 
	C30.403406,214.640961 29.879240,216.950409 29.002235,218.991211 
	C24.384586,216.163223 18.925581,214.110077 15.397294,210.278870 
	C12.178385,206.783600 11.051936,201.361328 8.971722,196.395157 
	C9.972547,186.748886 14.648003,180.870819 23.654396,177.474716 
	C42.337864,170.429611 60.735733,162.627090 79.617340,155.147003 
z"/>
<path fill="#FDFCA8" opacity="1.000000" stroke="none" 
	d="
M739.146729,296.578430 
	C738.443237,311.333527 737.785522,325.670288 736.981873,339.998871 
	C736.419434,350.026276 735.657593,360.042480 734.646790,370.684204 
	C725.209900,387.640381 713.555847,389.701843 699.377075,377.260651 
	C678.471924,358.917297 657.452576,340.692749 636.958496,321.897858 
	C629.385315,314.952606 621.445496,313.720520 612.146423,316.050690 
	C583.321289,323.273682 554.500244,330.514221 525.633728,337.568268 
	C523.230469,338.155518 520.497314,337.392975 517.948364,336.878723 
	C519.587524,334.373688 521.151245,332.211792 522.816528,330.131165 
	C524.491638,328.038269 526.267700,326.026215 528.419800,323.952148 
	C531.281799,323.482605 533.800781,323.289154 536.153137,322.558716 
	C565.252686,313.522339 594.339294,304.443665 623.391846,295.257507 
	C626.289551,294.341278 628.168640,294.754730 630.423157,296.905365 
	C650.429138,315.989594 670.570496,334.932007 690.680115,353.907593 
	C695.282532,358.250458 699.862305,362.619934 704.554443,366.864441 
	C707.888794,369.880737 712.171082,371.495026 716.004028,369.076599 
	C718.914551,367.240143 721.646484,363.855713 722.665955,360.599091 
	C724.018066,356.280060 723.683044,351.418365 723.970825,346.783478 
	C724.689819,335.204987 725.191528,323.610809 726.070984,312.045013 
	C727.603821,291.887054 729.407532,271.749725 730.974792,251.594223 
	C731.327759,247.055344 733.073730,244.234665 737.449524,242.143372 
	C763.295532,229.790955 789.002991,217.147568 814.710876,204.508072 
	C821.520447,201.160095 823.786865,195.256378 820.917297,189.320007 
	C818.327515,183.962463 811.684326,181.967514 805.303833,185.078857 
	C775.959839,199.388107 746.618103,213.705780 717.464783,228.396057 
	C714.663391,229.807663 711.709961,233.623535 711.316040,236.647507 
	C709.415283,251.240051 708.219543,265.932007 707.062866,280.611511 
	C706.125549,292.507263 705.691162,304.441925 704.850891,316.346405 
	C704.426758,322.355408 703.597107,328.335785 702.861267,335.158691 
	C700.465576,333.164185 698.754272,331.887634 697.211365,330.432495 
	C678.066711,312.376556 658.870056,294.374329 639.873901,276.163177 
	C635.142639,271.627472 630.427917,270.251556 624.060242,272.380981 
	C610.806030,276.813293 597.369812,280.701263 584.026062,284.461578 
	C585.247620,282.386902 586.128296,280.258270 587.704285,279.001648 
	C608.489258,262.428680 629.336609,245.933105 650.238770,229.507874 
	C683.291199,203.534760 716.404236,177.638794 749.447388,151.653839 
	C750.537659,150.796448 751.146423,149.326675 751.979614,148.142365 
	C765.051086,153.303955 778.143616,158.412964 791.187622,163.643082 
	C802.407410,168.141754 813.470886,173.049805 824.793701,177.265961 
	C833.379944,180.463135 838.634521,185.974121 840.010010,195.463745 
	C839.701294,196.549164 839.097656,197.243149 839.069397,197.959824 
	C838.772583,205.482544 834.951111,210.549515 828.576172,214.278595 
	C804.295044,228.482224 780.391785,243.363861 755.751404,256.907928 
	C743.595703,263.589569 740.037842,273.334351 739.976318,285.849976 
	C739.959412,289.286804 739.426453,292.721130 739.146729,296.578430 
z"/>
<path fill="#FDF9A1" opacity="1.000000" stroke="none" 
	d="
M751.666016,147.962463 
	C751.146423,149.326675 750.537659,150.796448 749.447388,151.653839 
	C716.404236,177.638794 683.291199,203.534760 650.238770,229.507874 
	C629.336609,245.933105 608.489258,262.428680 587.704285,279.001648 
	C586.128296,280.258270 585.247620,282.386902 583.670288,284.598816 
	C582.358154,285.412933 581.427246,285.763245 580.479675,286.060364 
	C562.773926,291.611053 545.082458,297.208588 527.347717,302.665314 
	C522.685791,304.099762 519.436279,307.384888 519.362549,311.727142 
	C519.306702,315.013336 521.854492,318.492065 523.732483,321.588654 
	C524.468201,322.801788 526.537476,323.206055 527.999451,323.978699 
	C526.267700,326.026215 524.491638,328.038269 522.816528,330.131165 
	C521.151245,332.211792 519.587524,334.373688 517.587402,336.803833 
	C509.738464,335.211304 506.288818,329.279388 503.087616,323.097290 
	C503.976013,318.304230 504.137604,313.224274 505.894440,308.774048 
	C510.450653,297.232971 515.708984,285.969116 521.213318,274.226837 
	C524.841003,271.385010 527.939636,268.907410 531.044250,266.437408 
	C556.384827,246.277023 581.650208,226.021194 607.092346,205.989883 
	C626.794495,190.477829 646.848145,175.411240 666.505615,159.843628 
	C684.725281,145.414597 702.599426,130.549683 720.712585,115.984787 
	C722.443604,114.592857 724.792419,113.969215 726.854492,112.988892 
	C727.957153,117.646454 729.313660,122.261108 730.109802,126.970505 
	C731.773376,136.811310 737.319946,142.996628 746.800781,145.853226 
	C748.369324,146.325821 749.837708,147.131058 751.666016,147.962463 
z"/>
<path fill="#FDF69A" opacity="1.000000" stroke="none" 
	d="
M726.884094,112.590477 
	C724.792419,113.969215 722.443604,114.592857 720.712585,115.984787 
	C702.599426,130.549683 684.725281,145.414597 666.505615,159.843628 
	C646.848145,175.411240 626.794495,190.477829 607.092346,205.989883 
	C581.650208,226.021194 556.384827,246.277023 531.044250,266.437408 
	C527.939636,268.907410 524.841003,271.385010 521.412109,273.930725 
	C527.044067,259.938507 533.003479,245.874680 539.004700,231.450226 
	C544.450562,222.863297 544.478760,214.685822 538.893799,206.512253 
	C537.586182,204.598587 536.449158,202.568375 535.308899,199.976105 
	C535.589539,199.100159 535.753906,198.788574 536.006226,198.586975 
	C553.453735,184.644135 570.974792,170.791901 588.311401,156.712601 
	C592.201416,153.553436 595.448364,149.602478 599.440430,146.010803 
	C608.776672,146.884995 617.667236,147.732452 626.550049,148.654449 
	C633.100464,149.334335 639.503052,150.069977 643.847656,143.275970 
	C656.894653,122.873116 670.058289,102.544746 683.226379,82.219688 
	C684.644287,80.031227 686.389404,78.054733 687.982727,75.979912 
	C690.303467,75.445404 693.065674,75.533684 694.862610,74.260117 
	C700.341675,70.376839 705.423828,65.936867 710.722900,61.793369 
	C711.715088,61.017551 712.995972,60.610886 714.493286,60.012691 
	C717.554382,71.410042 720.299255,82.820747 722.963501,94.250275 
	C724.353577,100.213760 725.601562,106.210388 726.884094,112.590477 
z"/>
<path fill="#FDF292" opacity="1.000000" stroke="none" 
	d="
M29.226349,219.244843 
	C29.879240,216.950409 30.403406,214.640961 31.708870,212.926376 
	C34.199394,209.655304 37.135445,206.723404 40.323212,203.386246 
	C44.843437,205.398087 48.840191,204.972946 53.198997,203.505966 
	C80.757843,194.230820 108.385857,185.161194 135.991043,176.023743 
	C134.873779,178.302628 134.253464,181.071930 132.562881,182.785049 
	C114.327026,201.264297 95.894623,219.549438 77.607910,237.978882 
	C75.788429,239.812561 74.575874,242.248459 73.015305,244.760712 
	C58.449463,236.577209 43.949966,228.037857 29.226349,219.244843 
z"/>
<path fill="#5E2B24" opacity="1.000000" stroke="none" 
	d="
M604.955750,501.378235 
	C593.639404,515.395386 581.303406,527.901550 566.788940,538.193237 
	C543.827637,554.474365 518.411377,565.166016 491.006592,570.927368 
	C477.814117,573.700928 464.353485,575.322754 450.949677,576.925964 
	C441.304993,578.079529 431.537079,579.044922 421.853729,578.819885 
	C409.675507,578.536865 397.412476,577.671814 385.395996,575.747131 
	C370.868073,573.420105 356.175781,570.905884 342.231079,566.385803 
	C305.300446,554.414856 274.409058,533.251221 250.330948,502.055023 
	C242.382462,488.462952 234.005341,475.395844 227.283157,461.526642 
	C221.729965,450.069336 216.924347,437.964020 217.036530,424.768860 
	C217.134872,413.201355 226.563248,402.780670 237.956696,400.954590 
	C251.267273,398.821228 264.498077,396.155640 277.840698,394.266357 
	C290.734283,392.440674 303.694611,390.830444 316.681549,389.974091 
	C341.618011,388.329773 366.585541,387.074310 391.556641,386.064941 
	C408.982361,385.360565 426.434601,385.165680 443.876740,385.073120 
	C453.314697,385.023041 462.768372,385.467407 472.193420,386.041901 
	C485.357727,386.844299 498.499573,388.009888 511.655548,388.956848 
	C521.203064,389.644043 530.774353,390.047516 540.304932,390.909729 
	C549.991821,391.786072 559.660217,392.931824 569.303162,394.211761 
	C579.860474,395.613068 590.390747,397.230713 600.910706,398.894196 
	C607.227844,399.893097 613.627502,400.708038 619.769287,402.404755 
	C630.912170,405.483063 638.179932,419.176178 635.937561,431.170044 
	C631.124268,456.914398 620.541809,480.059204 604.955750,501.378235 
M478.072357,412.033539 
	C473.712585,412.078400 469.352844,412.123230 464.235291,411.770874 
	C459.487854,411.569641 454.740417,411.368439 449.080780,411.030518 
	C445.384827,411.076630 441.688873,411.122711 437.065552,411.030090 
	C426.712646,411.075806 416.359711,411.121552 405.090393,411.016205 
	C401.062714,411.067108 397.035065,411.118011 392.084900,411.018768 
	C387.392639,411.068542 382.700378,411.118347 377.135498,411.019257 
	C371.760071,411.398224 366.384613,411.777191 360.116882,412.016357 
	C353.749390,412.472809 347.381897,412.929230 340.182617,413.201569 
	C337.107910,413.465393 334.027191,413.673309 330.959808,414.004883 
	C324.970612,414.652252 318.988831,415.368744 312.125488,415.916779 
	C292.701660,418.416046 273.277802,420.915314 253.853973,423.414551 
	C254.741745,425.164764 255.564407,425.698151 256.465851,425.975128 
	C264.557953,428.461456 272.587494,431.204193 280.784637,433.283203 
	C291.790039,436.074432 302.928070,438.342529 314.802551,441.029907 
	C316.051941,441.348938 317.289673,441.727051 318.552704,441.977203 
	C325.696289,443.391968 332.845947,444.776031 339.859772,446.849487 
	C334.351105,457.011078 328.199219,466.887451 323.528503,477.420624 
	C319.478821,486.553314 317.107605,496.430267 313.289856,506.292633 
	C307.381470,507.748993 301.473053,509.205353 295.564667,510.661713 
	C295.221222,511.274170 294.877747,511.886627 294.534271,512.499084 
	C296.061401,513.452148 297.597687,514.390869 299.114075,515.360718 
	C306.815247,520.286072 314.247223,525.704590 322.255890,530.064148 
	C352.976929,546.787170 386.432404,552.531311 420.896423,552.762085 
	C435.963318,552.862976 451.202850,551.921021 466.073181,549.594299 
	C480.584229,547.323853 494.724548,542.683838 509.783112,539.018921 
	C520.740356,533.876709 531.936890,529.176147 542.561523,523.419922 
	C548.552612,520.174011 553.601624,515.189209 559.741150,510.864807 
	C564.041321,506.753265 568.888916,503.051636 572.406982,498.354309 
	C574.122437,496.063873 574.466614,491.557159 573.531189,488.669250 
	C568.533386,473.240631 560.914307,459.071930 551.481628,445.858704 
	C550.203552,444.068420 549.780334,441.667908 549.618652,439.217834 
	C561.867249,436.138794 574.121948,433.083740 586.360413,429.964935 
	C589.689941,429.116516 593.590210,428.559113 591.216248,422.602173 
	C569.716919,420.150970 547.852600,417.658142 525.100586,415.019318 
	C515.063721,414.401672 505.026825,413.784058 494.092316,413.037170 
	C489.059052,412.747253 484.025787,412.457367 478.072357,412.033539 
z"/>
<path fill="#FD7E27" opacity="1.000000" stroke="none" 
	d="
M503.005554,323.453278 
	C506.288818,329.279388 509.738464,335.211304 517.556580,337.182648 
	C520.497314,337.392975 523.230469,338.155518 525.633728,337.568268 
	C554.500244,330.514221 583.321289,323.273682 612.146423,316.050690 
	C621.445496,313.720520 629.385315,314.952606 636.958496,321.897858 
	C657.452576,340.692749 678.471924,358.917297 699.377075,377.260651 
	C713.555847,389.701843 725.209900,387.640381 734.618530,371.148590 
	C734.929199,373.696136 734.929932,376.399750 734.937744,379.554749 
	C734.615356,383.305939 734.225647,386.601044 733.968811,389.906525 
	C733.362488,397.709259 730.592163,404.478088 723.036011,407.612579 
	C716.071350,410.501709 709.062683,410.117065 702.954529,404.707520 
	C690.006348,393.240326 676.956970,381.887543 663.995667,370.435120 
	C654.023132,361.623413 644.190002,352.652832 634.161133,343.906219 
	C628.781067,339.214020 622.479980,337.894440 615.480286,339.652740 
	C587.554565,346.667664 559.617249,353.637299 531.668213,360.558655 
	C528.781067,361.273621 525.795471,361.904968 522.840637,361.978699 
	C509.710327,362.306274 502.370453,356.432495 499.286560,343.294495 
	C500.364685,336.599426 501.644104,330.204346 503.005554,323.453278 
z"/>
<path fill="#FD7E26" opacity="1.000000" stroke="none" 
	d="
M113.878952,371.194885 
	C114.771080,372.167603 115.508705,373.443420 116.604874,375.243256 
	C125.255478,386.950134 137.101898,388.274750 147.481476,379.119781 
	C169.688995,359.532166 191.900955,339.949402 214.040024,320.284607 
	C218.090347,316.686951 222.491135,314.075073 227.984177,315.063202 
	C235.700531,316.451233 243.362900,318.187927 250.987915,320.026245 
	C274.177826,325.617218 297.392181,331.121429 320.488220,337.081116 
	C331.892151,340.023804 343.038757,333.666077 345.230377,322.107971 
	C346.786346,328.790588 348.342285,335.473175 349.905884,342.574768 
	C347.943420,347.138214 346.716034,351.911346 343.849976,355.297516 
	C337.719482,362.540558 329.203918,363.411194 320.474609,361.276001 
	C292.671356,354.475372 264.851715,347.722351 237.177353,340.424103 
	C226.917953,337.718536 219.066254,339.843719 211.221268,346.993164 
	C189.715515,366.592133 167.671265,385.600189 145.836853,404.838379 
	C139.915451,410.055725 133.178879,410.387756 126.227127,407.623077 
	C118.671310,404.618225 115.875191,398.177582 115.080360,390.630981 
	C114.733154,387.334473 114.678185,384.007141 114.283966,380.342926 
	C113.959763,377.160675 113.842102,374.329315 113.878952,371.194885 
z"/>
<path fill="#FDFDAB" opacity="1.000000" stroke="none" 
	d="
M345.153137,321.651611 
	C343.038757,333.666077 331.892151,340.023804 320.488220,337.081116 
	C297.392181,331.121429 274.177826,325.617218 250.987915,320.026245 
	C243.362900,318.187927 235.700531,316.451233 227.984177,315.063202 
	C222.491135,314.075073 218.090347,316.686951 214.040024,320.284607 
	C191.900955,339.949402 169.688995,359.532166 147.481476,379.119781 
	C137.101898,388.274750 125.255478,386.950134 116.871513,375.434143 
	C120.603416,371.483673 124.269821,367.676941 128.310089,364.320190 
	C130.733948,362.306427 133.741653,360.995331 137.172119,359.170288 
	C140.510712,358.528442 143.164169,358.084717 146.019226,357.861511 
	C146.814972,357.390839 147.409119,356.699738 148.164551,355.717773 
	C152.454651,351.578827 156.583450,347.730743 161.105804,343.897980 
	C166.275360,343.436584 168.658493,340.689117 169.159882,335.713806 
	C174.449982,330.575165 179.582718,325.729370 185.108734,320.898682 
	C190.276428,320.434631 192.659821,317.687897 193.159546,312.712646 
	C198.448578,307.573883 203.580139,302.727875 209.097168,297.898407 
	C211.039520,296.801697 212.596405,295.688477 214.552734,294.630859 
	C216.088181,294.943359 217.231674,295.171204 218.359100,295.461395 
	C248.111771,303.119507 277.866272,310.770538 307.610626,318.460846 
	C312.450562,319.712219 317.010925,319.546173 320.431824,315.486603 
	C323.657074,311.659210 323.416565,307.394775 321.573456,302.821350 
	C315.481140,287.704407 309.584839,272.508087 303.673462,257.318787 
	C298.062256,242.900894 292.526733,228.453568 287.166809,213.787109 
	C286.844604,212.729736 286.313477,211.904419 285.585449,210.853790 
	C285.625031,209.763885 285.861481,208.899277 286.453613,208.000549 
	C288.157440,205.851654 289.505554,203.736908 290.891113,201.455170 
	C290.928528,201.288177 291.121704,201.005615 291.489136,200.969238 
	C292.513916,199.785553 293.171234,198.638245 293.912628,197.200348 
	C294.711700,195.955872 295.426697,195.002029 296.504456,194.001862 
	C297.525604,192.828018 298.184082,191.700516 298.930817,190.272766 
	C300.012726,188.648346 301.006348,187.324173 302.240173,186.160614 
	C302.933746,185.405548 303.387177,184.489838 303.875305,183.417450 
	C303.910034,183.260773 304.103363,183.004562 304.472290,182.969025 
	C305.503662,181.785995 306.166138,180.638519 306.898560,179.227692 
	C307.514313,178.259384 308.060150,177.554428 308.606018,176.849457 
	C310.712585,175.757721 313.252563,175.101318 314.856598,173.504669 
	C326.637695,161.777679 338.216827,149.847977 349.914307,138.036301 
	C350.785614,137.156509 352.082214,136.697876 353.535889,136.024872 
	C339.589264,159.055389 325.562042,182.281586 310.846863,205.063431 
	C305.231567,213.756973 304.411957,221.827560 309.662079,230.924805 
	C316.493744,246.581390 323.038910,262.003052 329.648102,277.397186 
	C334.177887,287.947968 339.056610,298.358917 343.234161,309.045441 
	C344.688873,312.766663 344.509155,317.126862 345.153137,321.651611 
z"/>
<path fill="#FDB437" opacity="1.000000" stroke="none" 
	d="
M184.715454,320.883575 
	C179.582718,325.729370 174.449982,330.575165 168.862366,335.861694 
	C165.842407,338.829132 163.277328,341.355896 160.712250,343.882629 
	C156.583450,347.730743 152.454651,351.578827 147.909821,355.824585 
	C146.935074,356.695160 146.376343,357.168091 145.817612,357.641022 
	C143.164169,358.084717 140.510712,358.528442 137.441620,358.927948 
	C133.453888,356.143372 129.283463,353.518829 130.037109,348.275391 
	C130.457413,345.351196 131.555649,341.895020 133.568512,339.925690 
	C155.696533,318.276245 178.099014,296.907684 200.341553,275.374634 
	C205.298218,270.576050 211.072174,271.385834 216.692444,272.795685 
	C240.410141,278.745300 264.058289,284.972076 287.736176,291.080872 
	C289.460175,291.525665 291.218384,291.838013 294.209534,292.479980 
	C292.330750,287.588928 290.855164,283.665436 289.320282,279.765289 
	C280.667084,257.777740 272.058258,235.772446 263.293610,213.829391 
	C261.242737,208.694855 261.742249,204.318542 265.018158,199.810303 
	C283.512634,174.358612 301.850525,148.793228 320.289795,123.301292 
	C324.395630,117.625092 332.030396,116.015816 336.817200,119.622002 
	C341.838745,123.405037 342.189026,129.785385 337.705261,136.039154 
	C328.104126,149.430618 318.497314,162.818039 308.749420,176.528290 
	C308.060150,177.554428 307.514313,178.259384 306.639709,179.432800 
	C305.575073,180.935684 304.839233,181.970123 304.103363,183.004562 
	C304.103363,183.004562 303.910034,183.260773 303.628357,183.610901 
	C302.897766,184.640671 302.448883,185.320343 302.000000,186.000000 
	C301.006348,187.324173 300.012726,188.648346 298.672668,190.470871 
	C297.598053,191.995544 296.869904,193.021851 296.141724,194.048172 
	C295.426697,195.002029 294.711700,195.955872 293.654083,197.405182 
	C292.581573,198.935623 291.851654,199.970627 291.121704,201.005615 
	C291.121704,201.005615 290.928528,201.288177 290.618530,201.665482 
	C288.905029,204.040085 287.501465,206.037384 286.097931,208.034683 
	C285.861481,208.899277 285.625031,209.763885 285.631134,211.176208 
	C286.235107,212.489029 286.596527,213.254105 286.957947,214.019180 
	C292.526733,228.453568 298.062256,242.900894 303.673462,257.318787 
	C309.584839,272.508087 315.481140,287.704407 321.573456,302.821350 
	C323.416565,307.394775 323.657074,311.659210 320.431824,315.486603 
	C317.010925,319.546173 312.450562,319.712219 307.610626,318.460846 
	C277.866272,310.770538 248.111771,303.119507 218.359100,295.461395 
	C217.231674,295.171204 216.088181,294.943359 214.281738,294.488464 
	C211.978088,295.487640 210.344894,296.684723 208.711700,297.881836 
	C203.580139,302.727875 198.448578,307.573883 192.859497,312.856201 
	C189.839798,315.822815 187.277618,318.353210 184.715454,320.883575 
z"/>
<path fill="#FDFFAE" opacity="1.000000" stroke="none" 
	d="
M136.324173,175.866882 
	C108.385857,185.161194 80.757843,194.230820 53.198997,203.505966 
	C48.840191,204.972946 44.843437,205.398087 40.387920,203.046829 
	C37.610874,199.356110 34.629940,195.560608 36.980621,191.128372 
	C38.468147,188.323639 41.020733,185.453583 43.815620,184.104980 
	C49.457958,181.382431 55.591103,179.677063 61.776245,177.310760 
	C63.972851,176.676178 65.979721,176.478363 67.847328,175.859970 
	C89.928154,168.548584 111.966820,161.109024 134.074051,153.878937 
	C137.899155,152.627960 139.507751,150.589859 140.137131,146.540405 
	C143.494736,124.937607 147.207474,103.390053 150.778809,81.820312 
	C150.940598,80.843208 150.922867,79.836380 150.978821,78.416443 
	C151.298889,76.207359 151.692917,74.434341 151.948318,72.641586 
	C153.370178,62.661278 158.355209,59.337593 168.595947,61.925266 
	C173.299652,66.145683 174.276428,70.831413 173.160477,76.866348 
	C169.856552,94.733543 167.207672,112.722443 164.367340,130.673981 
	C164.033096,132.786545 164.101822,134.962845 163.973480,137.557007 
	C162.643509,144.784210 160.895279,151.515793 160.125397,158.357452 
	C159.365921,165.106781 156.524841,169.421356 149.838852,171.259995 
	C145.374680,172.487625 141.046402,174.209381 136.324173,175.866882 
z"/>
<path fill="#FDFFAE" opacity="1.000000" stroke="none" 
	d="
M688.046753,75.631363 
	C686.389404,78.054733 684.644287,80.031227 683.226379,82.219688 
	C670.058289,102.544746 656.894653,122.873116 643.847656,143.275970 
	C639.503052,150.069977 633.100464,149.334335 626.550049,148.654449 
	C617.667236,147.732452 608.776672,146.884995 599.042297,146.005463 
	C597.132507,145.994247 596.069946,145.983139 594.761047,145.758820 
	C593.674072,145.370987 592.833435,145.196320 591.539917,145.017853 
	C579.042114,143.928360 566.968689,143.086472 554.960571,141.684158 
	C544.289673,140.438004 533.691345,138.570312 523.060974,136.976959 
	C521.959656,135.134781 520.603577,133.396484 519.802368,131.431915 
	C516.791199,124.048813 523.408691,116.524200 531.861450,117.436272 
	C537.927429,118.090820 544.021423,118.485435 550.551514,118.996338 
	C555.557068,119.659843 560.096924,120.494263 564.674255,120.956543 
	C584.479614,122.956718 604.287720,124.943665 624.120667,126.631752 
	C626.112610,126.801300 629.148010,125.504608 630.227966,123.898918 
	C639.423889,110.225616 648.281738,96.324898 657.235596,82.488907 
	C662.924866,73.697426 668.571167,64.877884 674.301758,56.113380 
	C678.025757,50.417885 684.948914,48.804848 690.342896,52.256653 
	C694.658752,55.018543 695.738953,62.159935 692.635742,67.561501 
	C691.149780,70.148125 689.620422,72.709831 688.046753,75.631363 
z"/>
<path fill="#FDF292" opacity="1.000000" stroke="none" 
	d="
M595.007324,145.972015 
	C596.069946,145.983139 597.132507,145.994247 598.593262,146.010696 
	C595.448364,149.602478 592.201416,153.553436 588.311401,156.712601 
	C570.974792,170.791901 553.453735,184.644135 536.006226,198.586975 
	C535.753906,198.788574 535.589539,199.100159 535.214600,199.642761 
	C524.981750,183.891922 514.918457,167.858734 504.713562,151.498840 
	C510.537720,146.552444 516.503479,141.932755 522.765076,137.145020 
	C533.691345,138.570312 544.289673,140.438004 554.960571,141.684158 
	C566.968689,143.086472 579.042114,143.928360 591.621582,145.310333 
	C593.106445,145.728424 594.056885,145.850220 595.007324,145.972015 
z"/>
<path fill="#FDB437" opacity="1.000000" stroke="none" 
	d="
M528.419800,323.952148 
	C526.537476,323.206055 524.468201,322.801788 523.732483,321.588654 
	C521.854492,318.492065 519.306702,315.013336 519.362549,311.727142 
	C519.436279,307.384888 522.685791,304.099762 527.347717,302.665314 
	C545.082458,297.208588 562.773926,291.611053 580.479675,286.060364 
	C581.427246,285.763245 582.358154,285.412933 583.652588,284.950134 
	C597.369812,280.701263 610.806030,276.813293 624.060242,272.380981 
	C630.427917,270.251556 635.142639,271.627472 639.873901,276.163177 
	C658.870056,294.374329 678.066711,312.376556 697.211365,330.432495 
	C698.754272,331.887634 700.465576,333.164185 702.861267,335.158691 
	C703.597107,328.335785 704.426758,322.355408 704.850891,316.346405 
	C705.691162,304.441925 706.125549,292.507263 707.062866,280.611511 
	C708.219543,265.932007 709.415283,251.240051 711.316040,236.647507 
	C711.709961,233.623535 714.663391,229.807663 717.464783,228.396057 
	C746.618103,213.705780 775.959839,199.388107 805.303833,185.078857 
	C811.684326,181.967514 818.327515,183.962463 820.917297,189.320007 
	C823.786865,195.256378 821.520447,201.160095 814.710876,204.508072 
	C789.002991,217.147568 763.295532,229.790955 737.449524,242.143372 
	C733.073730,244.234665 731.327759,247.055344 730.974792,251.594223 
	C729.407532,271.749725 727.603821,291.887054 726.070984,312.045013 
	C725.191528,323.610809 724.689819,335.204987 723.970825,346.783478 
	C723.683044,351.418365 724.018066,356.280060 722.665955,360.599091 
	C721.646484,363.855713 718.914551,367.240143 716.004028,369.076599 
	C712.171082,371.495026 707.888794,369.880737 704.554443,366.864441 
	C699.862305,362.619934 695.282532,358.250458 690.680115,353.907593 
	C670.570496,334.932007 650.429138,315.989594 630.423157,296.905365 
	C628.168640,294.754730 626.289551,294.341278 623.391846,295.257507 
	C594.339294,304.443665 565.252686,313.522339 536.153137,322.558716 
	C533.800781,323.289154 531.281799,323.482605 528.419800,323.952148 
z"/>
<path fill="#AB2843" opacity="1.000000" stroke="none" 
	d="
M509.027618,539.084106 
	C494.724548,542.683838 480.584229,547.323853 466.073181,549.594299 
	C451.202850,551.921021 435.963318,552.862976 420.896423,552.762085 
	C386.432404,552.531311 352.976929,546.787170 322.255890,530.064148 
	C314.247223,525.704590 306.815247,520.286072 299.114075,515.360718 
	C297.597687,514.390869 296.061401,513.452148 294.534271,512.499084 
	C294.877747,511.886627 295.221222,511.274170 295.564667,510.661713 
	C301.473053,509.205353 307.381470,507.748993 314.056396,506.144836 
	C321.219849,504.703857 327.616699,503.410645 334.028198,502.469727 
	C335.042755,504.704468 335.698761,506.904388 337.096985,508.419281 
	C348.464508,520.734985 362.656433,528.790955 378.660370,532.779053 
	C390.807678,535.806152 403.242828,537.638672 415.963348,538.486267 
	C434.680786,539.733215 452.891632,537.936462 470.594696,532.985413 
	C486.887970,528.428711 501.566833,520.020386 512.732788,506.676422 
	C513.825867,505.370087 514.269531,503.520264 515.428711,501.929565 
	C521.571594,502.909210 527.300537,503.882080 533.367065,505.034485 
	C536.467712,505.825989 539.230713,506.437988 541.928833,507.386993 
	C535.623535,514.453735 529.614563,521.420227 523.059998,527.828796 
	C518.793152,532.000610 513.732605,535.360474 509.027618,539.084106 
z"/>
<path fill="#6B2D25" opacity="1.000000" stroke="none" 
	d="
M541.993652,507.049988 
	C539.230713,506.437988 536.467712,505.825989 533.338623,504.670258 
	C525.466858,483.857697 512.560852,467.742126 495.389252,454.803284 
	C493.199005,453.152924 491.783508,450.474396 490.461761,448.235168 
	C501.937836,446.722198 512.961243,445.246277 524.390747,443.812683 
	C532.851685,442.420044 540.906494,440.985016 548.961304,439.549988 
	C549.780334,441.667908 550.203552,444.068420 551.481628,445.858704 
	C560.914307,459.071930 568.533386,473.240631 573.531189,488.669250 
	C574.466614,491.557159 574.122437,496.063873 572.406982,498.354309 
	C568.888916,503.051636 564.041321,506.753265 559.017700,510.867279 
	C552.860779,509.596527 547.427185,508.323273 541.993652,507.049988 
z"/>
<path fill="#6B2D25" opacity="1.000000" stroke="none" 
	d="
M334.013580,502.117432 
	C327.616699,503.410645 321.219849,504.703857 314.408752,505.987671 
	C317.107605,496.430267 319.478821,486.553314 323.528503,477.420624 
	C328.199219,466.887451 334.351105,457.011078 340.336609,446.440552 
	C342.196075,446.057953 343.578766,446.084320 345.203674,446.450867 
	C353.967316,447.475647 362.488770,448.160248 371.382538,449.050415 
	C379.839203,449.782959 387.923553,450.309937 396.403931,450.899231 
	C397.864746,451.027771 398.929504,451.093994 399.923279,451.488342 
	C399.157288,452.712982 398.557098,453.706757 397.752625,454.490967 
	C389.976959,462.070740 381.568939,469.106567 374.565735,477.339142 
	C369.437744,483.367310 366.142273,490.954315 361.603271,497.894531 
	C352.122223,499.334198 343.067902,500.725830 334.013580,502.117432 
z"/>
<path fill="#E1E0DF" opacity="1.000000" stroke="none" 
	d="
M399.994293,451.160217 
	C398.929504,451.093994 397.864746,451.027771 396.382111,450.546265 
	C395.139160,448.983826 394.476227,447.661407 393.459930,446.720795 
	C389.708832,443.249054 385.678467,440.067139 382.056671,436.470551 
	C377.192200,431.639832 375.137390,425.643433 376.147217,418.802643 
	C376.528046,416.222443 377.374115,413.710938 378.008118,411.168152 
	C382.700378,411.118347 387.392639,411.068542 392.525024,411.449158 
	C392.374939,413.036865 391.909058,414.280701 391.173859,415.337128 
	C387.122253,421.159027 387.226166,423.212311 391.421936,429.165588 
	C396.711426,436.670746 404.405121,440.977173 412.373383,444.713043 
	C415.861237,446.348328 420.199005,447.903137 423.777283,447.295349 
	C435.503052,445.303619 444.966888,438.829620 452.470917,429.708405 
	C456.905396,424.318176 456.676483,421.662506 452.638794,415.918671 
	C451.601959,414.443726 450.866760,412.756775 449.992981,411.167206 
	C454.740417,411.368439 459.487854,411.569641 464.639679,412.356018 
	C467.085022,419.214813 468.781647,425.716522 464.157440,431.389221 
	C460.143799,436.312836 455.271667,440.530914 450.857544,445.136169 
	C448.806763,447.275787 446.942505,449.594177 444.527100,451.897095 
	C440.913544,451.808746 437.767822,451.560516 434.619324,451.517914 
	C423.078156,451.361694 411.536041,451.273804 399.994293,451.160217 
z"/>
<path fill="#C9C0C0" opacity="1.000000" stroke="none" 
	d="
M549.289978,439.383911 
	C540.906494,440.985016 532.851685,442.420044 524.392273,443.385529 
	C524.654541,433.665771 525.321411,424.415527 525.988281,415.165314 
	C547.852600,417.658142 569.716919,420.150970 591.216248,422.602173 
	C593.590210,428.559113 589.689941,429.116516 586.360413,429.964935 
	C574.121948,433.083740 561.867249,436.138794 549.289978,439.383911 
z"/>
<path fill="#D0CAC9" opacity="1.000000" stroke="none" 
	d="
M525.544434,415.092316 
	C525.321411,424.415527 524.654541,433.665771 523.986206,443.343140 
	C512.961243,445.246277 501.937836,446.722198 490.212646,448.110840 
	C489.336914,447.958740 489.162964,447.893921 489.062134,447.484680 
	C494.752502,436.447357 497.891327,425.327332 494.989929,413.166412 
	C505.026825,413.784058 515.063721,414.401672 525.544434,415.092316 
z"/>
<path fill="#E7E7E6" opacity="1.000000" stroke="none" 
	d="
M449.536865,411.098877 
	C450.866760,412.756775 451.601959,414.443726 452.638794,415.918671 
	C456.676483,421.662506 456.905396,424.318176 452.470917,429.708405 
	C444.966888,438.829620 435.503052,445.303619 423.777283,447.295349 
	C420.199005,447.903137 415.861237,446.348328 412.373383,444.713043 
	C404.405121,440.977173 396.711426,436.670746 391.421936,429.165588 
	C387.226166,423.212311 387.122253,421.159027 391.173859,415.337128 
	C391.909058,414.280701 392.374939,413.036865 392.986267,411.524231 
	C397.035065,411.118011 401.062714,411.067108 405.474335,411.422211 
	C403.627014,415.741364 399.146423,420.053619 399.751465,423.463531 
	C400.458679,427.449432 405.563049,430.684540 408.847778,434.162262 
	C409.627441,434.987732 410.674561,435.732056 411.740662,436.086487 
	C416.919769,437.808105 421.825806,441.361389 427.728668,437.956604 
	C433.027466,434.900299 438.504059,432.336487 442.427704,427.226532 
	C445.205139,423.609344 445.229797,420.901886 442.206696,417.606445 
	C440.495911,415.741455 439.377899,413.332672 437.992920,411.168793 
	C441.688873,411.122711 445.384827,411.076630 449.536865,411.098877 
z"/>
<path fill="#C9C0C0" opacity="1.000000" stroke="none" 
	d="
M314.009186,440.835205 
	C302.928070,438.342529 291.790039,436.074432 280.784637,433.283203 
	C272.587494,431.204193 264.557953,428.461456 256.465851,425.975128 
	C255.564407,425.698151 254.741745,425.164764 253.853973,423.414551 
	C273.277802,420.915314 292.701660,418.416046 312.563751,416.449646 
	C313.337738,424.933411 313.673462,432.884308 314.009186,440.835205 
z"/>
<path fill="#CFC8C7" opacity="1.000000" stroke="none" 
	d="
M314.405884,440.932556 
	C313.673462,432.884308 313.337738,424.933411 313.002991,416.519592 
	C318.988831,415.368744 324.970612,414.652252 330.959808,414.004883 
	C334.027191,413.673309 337.107910,413.465393 340.597961,413.700073 
	C341.076294,420.415894 340.688049,426.681885 341.352509,432.834198 
	C341.838806,437.337097 343.708405,441.690582 344.961426,446.110657 
	C343.578766,446.084320 342.196075,446.057953 340.403503,446.101074 
	C332.845947,444.776031 325.696289,443.391968 318.552704,441.977203 
	C317.289673,441.727051 316.051941,441.348938 314.405884,440.932556 
z"/>
<path fill="#D5D0CF" opacity="1.000000" stroke="none" 
	d="
M345.203674,446.450867 
	C343.708405,441.690582 341.838806,437.337097 341.352509,432.834198 
	C340.688049,426.681885 341.076294,420.415894 341.013855,413.792145 
	C347.381897,412.929230 353.749390,412.472809 360.560760,412.527557 
	C361.002228,414.197479 361.183136,415.391296 360.969086,416.509491 
	C358.802826,427.825531 362.573792,437.256439 369.949402,445.639221 
	C370.633606,446.416901 370.671967,447.762817 371.010193,448.844849 
	C362.488770,448.160248 353.967316,447.475647 345.203674,446.450867 
z"/>
<path fill="#DCD9D8" opacity="1.000000" stroke="none" 
	d="
M371.382538,449.050415 
	C370.671967,447.762817 370.633606,446.416901 369.949402,445.639221 
	C362.573792,437.256439 358.802826,427.825531 360.969086,416.509491 
	C361.183136,415.391296 361.002228,414.197479 361.006897,412.597443 
	C366.384613,411.777191 371.760071,411.398224 377.571808,411.093689 
	C377.374115,413.710938 376.528046,416.222443 376.147217,418.802643 
	C375.137390,425.643433 377.192200,431.639832 382.056671,436.470551 
	C385.678467,440.067139 389.708832,443.249054 393.459930,446.720795 
	C394.476227,447.661407 395.139160,448.983826 395.986084,450.483948 
	C387.923553,450.309937 379.839203,449.782959 371.382538,449.050415 
z"/>
<path fill="#D7D3D2" opacity="1.000000" stroke="none" 
	d="
M494.541138,413.101807 
	C497.891327,425.327332 494.752502,436.447357 488.645142,447.549316 
	C485.924988,448.304443 483.700287,448.691559 481.463593,448.988037 
	C476.642822,449.627106 471.815887,450.219543 467.012268,450.478790 
	C467.856110,448.742737 468.642365,447.335510 469.508972,445.979584 
	C472.259003,441.676788 475.382629,437.571686 477.726288,433.059998 
	C481.185608,426.400543 480.173431,419.234924 478.992523,412.167480 
	C484.025787,412.457367 489.059052,412.747253 494.541138,413.101807 
z"/>
<path fill="#EDEEED" opacity="1.000000" stroke="none" 
	d="
M437.529236,411.099426 
	C439.377899,413.332672 440.495911,415.741455 442.206696,417.606445 
	C445.229797,420.901886 445.205139,423.609344 442.427704,427.226532 
	C438.504059,432.336487 433.027466,434.900299 427.728668,437.956604 
	C421.825806,441.361389 416.919769,437.808105 411.740662,436.086487 
	C410.674561,435.732056 409.627441,434.987732 408.847778,434.162262 
	C405.563049,430.684540 400.458679,427.449432 399.751465,423.463531 
	C399.146423,420.053619 403.627014,415.741364 405.932556,411.497742 
	C416.359711,411.121552 426.712646,411.075806 437.529236,411.099426 
M424.489044,413.904083 
	C418.839081,412.571899 412.378357,415.527283 409.970245,420.640350 
	C409.579834,421.469330 409.271759,422.585968 409.497620,423.413544 
	C410.524658,427.176605 418.689728,432.237000 422.767975,431.797394 
	C427.105774,431.329803 433.873901,426.483704 434.502502,423.395264 
	C435.044220,420.733551 430.359741,415.997253 424.489044,413.904083 
z"/>
<path fill="#DDDAD9" opacity="1.000000" stroke="none" 
	d="
M478.532440,412.100525 
	C480.173431,419.234924 481.185608,426.400543 477.726288,433.059998 
	C475.382629,437.571686 472.259003,441.676788 469.508972,445.979584 
	C468.642365,447.335510 467.856110,448.742737 466.548523,450.544434 
	C459.040527,451.252045 452.017090,451.541779 444.993683,451.831512 
	C446.942505,449.594177 448.806763,447.275787 450.857544,445.136169 
	C455.271667,440.530914 460.143799,436.312836 464.157440,431.389221 
	C468.781647,425.716522 467.085022,419.214813 465.018555,412.554626 
	C469.352844,412.123230 473.712585,412.078400 478.532440,412.100525 
z"/>
<path fill="#A82742" opacity="1.000000" stroke="none" 
	d="
M541.928833,507.387024 
	C547.427185,508.323273 552.860779,509.596527 558.684692,510.928711 
	C553.601624,515.189209 548.552612,520.174011 542.561523,523.419922 
	C531.936890,529.176147 520.740356,533.876709 509.405365,539.051514 
	C513.732605,535.360474 518.793152,532.000610 523.059998,527.828796 
	C529.614563,521.420227 535.623535,514.453735 541.928833,507.387024 
z"/>
<path fill="#FDFBA5" opacity="1.000000" stroke="none" 
	d="
M161.105804,343.898010 
	C163.277328,341.355896 165.842407,338.829132 168.704987,336.154510 
	C168.658493,340.689117 166.275360,343.436584 161.105804,343.898010 
z"/>
<path fill="#FDFBA5" opacity="1.000000" stroke="none" 
	d="
M185.108734,320.898682 
	C187.277618,318.353210 189.839798,315.822815 192.702026,313.148926 
	C192.659821,317.687897 190.276428,320.434631 185.108734,320.898682 
z"/>
<path fill="#FDFBA5" opacity="1.000000" stroke="none" 
	d="
M286.453613,208.000549 
	C287.501465,206.037384 288.905029,204.040085 290.581116,201.832474 
	C289.505554,203.736908 288.157440,205.851654 286.453613,208.000549 
z"/>
<path fill="#FDFBA5" opacity="1.000000" stroke="none" 
	d="
M209.097168,297.898376 
	C210.344894,296.684723 211.978088,295.487640 213.882278,294.432892 
	C212.596405,295.688477 211.039520,296.801697 209.097168,297.898376 
z"/>
<path fill="#FDFBA5" opacity="1.000000" stroke="none" 
	d="
M287.166840,213.787109 
	C286.596527,213.254105 286.235107,212.489029 285.828003,211.401535 
	C286.313477,211.904419 286.844604,212.729736 287.166840,213.787109 
z"/>
<path fill="#FDFBA5" opacity="1.000000" stroke="none" 
	d="
M291.489136,200.969238 
	C291.851654,199.970627 292.581573,198.935623 293.570038,197.695801 
	C293.171234,198.638245 292.513916,199.785553 291.489136,200.969238 
z"/>
<path fill="#FDFBA5" opacity="1.000000" stroke="none" 
	d="
M296.504456,194.001862 
	C296.869904,193.021851 297.598053,191.995544 298.584412,190.771118 
	C298.184082,191.700516 297.525604,192.828018 296.504456,194.001862 
z"/>
<path fill="#FDFBA5" opacity="1.000000" stroke="none" 
	d="
M304.472290,182.969025 
	C304.839233,181.970123 305.575073,180.935684 306.569763,179.696136 
	C306.166138,180.638519 305.503662,181.785995 304.472290,182.969025 
z"/>
<path fill="#FDFBA5" opacity="1.000000" stroke="none" 
	d="
M146.019226,357.861511 
	C146.376343,357.168091 146.935074,356.695160 147.748535,356.115417 
	C147.409119,356.699738 146.814972,357.390839 146.019226,357.861511 
z"/>
<path fill="#FDFBA5" opacity="1.000000" stroke="none" 
	d="
M302.240173,186.160614 
	C302.448883,185.320343 302.897766,184.640671 303.593628,183.767578 
	C303.387177,184.489838 302.933746,185.405548 302.240173,186.160614 
z"/>
<path fill="#FDF69A" opacity="1.000000" stroke="none" 
	d="
M594.761047,145.758820 
	C594.056885,145.850220 593.106445,145.728424 592.074341,145.314148 
	C592.833435,145.196320 593.674072,145.370987 594.761047,145.758820 
z"/>
<path fill="#762E28" opacity="1.000000" stroke="none" 
	d="
M444.527100,451.897095 
	C452.017090,451.541779 459.040527,451.252045 466.527710,450.896698 
	C471.815887,450.219543 476.642822,449.627106 481.463593,448.988037 
	C483.700287,448.691559 485.924988,448.304443 488.572083,447.893738 
	C489.162964,447.893921 489.336914,447.958740 489.759949,448.147858 
	C491.783508,450.474396 493.199005,453.152924 495.389252,454.803284 
	C512.560852,467.742126 525.466858,483.857697 533.000916,504.490723 
	C527.300537,503.882080 521.571594,502.909210 515.072083,501.783661 
	C504.861298,500.451019 495.421112,499.271088 485.576721,497.998413 
	C470.654114,496.604340 456.159180,494.692383 441.612305,494.134521 
	C414.981476,493.113190 388.397644,494.382477 361.988770,498.075134 
	C362.003326,497.999084 362.030060,497.846527 362.030029,497.846527 
	C366.142273,490.954315 369.437744,483.367310 374.565735,477.339142 
	C381.568939,469.106567 389.976959,462.070740 397.752625,454.490967 
	C398.557098,453.706757 399.157288,452.712982 399.923279,451.488342 
	C411.536041,451.273804 423.078156,451.361694 434.619324,451.517914 
	C437.767822,451.560516 440.913544,451.808746 444.527100,451.897095 
z"/>
<path fill="#B12C46" opacity="1.000000" stroke="none" 
	d="
M485.980957,498.091156 
	C495.421112,499.271088 504.861298,500.451019 514.658081,501.776855 
	C514.269531,503.520264 513.825867,505.370087 512.732788,506.676422 
	C501.566833,520.020386 486.887970,528.428711 470.594696,532.985413 
	C452.891632,537.936462 434.680786,539.733215 415.963348,538.486267 
	C403.242828,537.638672 390.807678,535.806152 378.660370,532.779053 
	C362.656433,528.790955 348.464508,520.734985 337.096985,508.419281 
	C335.698761,506.904388 335.042755,504.704468 334.028198,502.469727 
	C343.067902,500.725830 352.122223,499.334198 361.603302,497.894531 
	C362.030060,497.846527 362.003326,497.999084 362.067444,498.397003 
	C365.921967,501.885345 369.282776,505.923340 373.589142,507.875793 
	C383.642365,512.433899 393.862579,517.577393 404.552948,519.512512 
	C415.609985,521.514038 427.332886,520.549072 438.709229,519.904785 
	C454.995636,518.982483 469.675537,512.971375 482.794830,503.343903 
	C484.320282,502.224487 484.940857,499.871979 485.980957,498.091156 
z"/>
<path fill="#F2F5F3" opacity="1.000000" stroke="none" 
	d="
M424.871216,413.973938 
	C430.359741,415.997253 435.044220,420.733551 434.502502,423.395264 
	C433.873901,426.483704 427.105774,431.329803 422.767975,431.797394 
	C418.689728,432.237000 410.524658,427.176605 409.497620,423.413544 
	C409.271759,422.585968 409.579834,421.469330 409.970245,420.640350 
	C412.378357,415.527283 418.839081,412.571899 424.871216,413.973938 
z"/>
<path fill="#BB324C" opacity="1.000000" stroke="none" 
	d="
M485.576721,497.998413 
	C484.940857,499.871979 484.320282,502.224487 482.794830,503.343903 
	C469.675537,512.971375 454.995636,518.982483 438.709229,519.904785 
	C427.332886,520.549072 415.609985,521.514038 404.552948,519.512512 
	C393.862579,517.577393 383.642365,512.433899 373.589142,507.875793 
	C369.282776,505.923340 365.921967,501.885345 362.052856,498.473083 
	C388.397644,494.382477 414.981476,493.113190 441.612305,494.134521 
	C456.159180,494.692383 470.654114,496.604340 485.576721,497.998413 
z"/>
</svg>