<svg version="1.1" id="Layer_1" xmlns="http://www.w3.org/2000/svg" xmlns:xlink="http://www.w3.org/1999/xlink" x="0px" y="0px"
	 width="100%" viewBox="0 0 96 96" enable-background="new 0 0 96 96" xml:space="preserve">
<path fill="#000000" opacity="1.000000" stroke="none" 
	d="
M64.000000,97.000000 
	C42.666672,97.000000 21.833342,97.000000 1.000008,97.000000 
	C1.000006,65.000008 1.000006,33.000019 1.000003,1.000021 
	C32.999985,1.000014 64.999969,1.000014 96.999969,1.000007 
	C96.999977,32.999981 96.999977,64.999962 96.999985,96.999969 
	C86.166664,97.000000 75.333336,97.000000 64.000000,97.000000 
M31.507925,16.922998 
	C16.542059,25.865772 8.814354,42.236565 13.303235,57.476597 
	C19.698925,79.190361 36.132961,88.735306 56.855923,84.592506 
	C83.768448,79.212326 92.332893,49.983524 79.949493,29.613638 
	C70.019836,13.279998 50.766685,8.377668 31.507925,16.922998 
z"/>
<path fill="#F2B315" opacity="1.000000" stroke="none" 
	d="
M31.800083,16.671280 
	C50.766685,8.377668 70.019836,13.279998 79.949493,29.613638 
	C92.332893,49.983524 83.768448,79.212326 56.855923,84.592506 
	C36.132961,88.735306 19.698925,79.190361 13.303235,57.476597 
	C8.814354,42.236565 16.542059,25.865772 31.800083,16.671280 
M16.005785,41.670578 
	C16.005333,42.114143 16.004883,42.557713 15.465997,43.611835 
	C13.800267,54.933388 17.272203,64.873299 25.283045,72.548790 
	C40.757664,87.375580 65.303734,84.663033 77.249992,66.919342 
	C81.995270,59.871216 84.726280,51.824684 81.995697,42.335964 
	C81.994705,41.892399 81.993713,41.448837 81.978638,40.309559 
	C81.320976,39.538174 80.663307,38.766788 80.003395,37.247707 
	C80.000473,36.500019 79.997559,35.752327 79.912399,34.318596 
	C78.943260,33.211075 77.974113,32.103554 76.985840,30.267420 
	C76.419617,29.112665 76.089806,27.737612 75.250694,26.837156 
	C66.652977,17.610832 56.105812,12.988385 43.518726,15.235614 
	C33.821060,16.966982 25.248051,21.100609 20.309153,31.139763 
	C18.875290,34.428265 17.441427,37.716763 16.005785,41.670578 
z"/>
<path fill="#F5BA1A" opacity="1.000000" stroke="none" 
	d="
M81.995102,43.001343 
	C84.726280,51.824684 81.995270,59.871216 77.249992,66.919342 
	C65.303734,84.663033 40.757664,87.375580 25.283045,72.548790 
	C17.272203,64.873299 13.800267,54.933388 16.002396,43.612297 
	C16.692499,45.083912 16.923607,46.551697 16.987621,48.026741 
	C17.484743,59.481853 22.572969,68.272652 32.173248,74.520332 
	C34.714077,76.173859 36.752949,76.444962 38.328419,73.135094 
	C39.767143,73.803009 40.882008,74.444122 42.070999,75.464737 
	C45.361298,78.843857 55.184074,79.029716 58.119461,76.049988 
	C58.626682,75.535110 58.650837,74.544350 58.989559,73.537247 
	C59.383778,73.218941 59.686562,73.136787 60.153271,73.342049 
	C61.778992,75.947075 63.515293,76.026657 65.749908,74.581245 
	C72.861107,69.981514 77.902039,63.836971 79.867050,55.518288 
	C80.838028,51.407772 81.301826,47.177456 81.995102,43.001343 
z"/>
<path fill="#F8C11E" opacity="1.000000" stroke="none" 
	d="
M20.994686,30.995817 
	C25.248051,21.100609 33.821060,16.966982 43.518726,15.235614 
	C56.105812,12.988385 66.652977,17.610832 75.250694,26.837156 
	C76.089806,27.737612 76.419617,29.112665 76.951324,30.942120 
	C76.558182,32.103474 76.199570,32.590134 75.482704,33.059341 
	C74.409836,32.952145 73.695213,32.862404 72.983574,32.406052 
	C72.595375,30.813379 72.494606,29.371496 71.768456,28.394369 
	C63.813705,17.690233 48.949562,13.738731 36.957191,19.715311 
	C31.630377,22.370010 25.989859,25.495401 24.819237,32.702660 
	C23.749847,32.906147 22.954500,32.992058 21.907375,32.892956 
	C21.435295,32.137238 21.214991,31.566526 20.994686,30.995817 
z"/>
<path fill="#F8C11E" opacity="1.000000" stroke="none" 
	d="
M81.995399,42.668655 
	C81.301826,47.177456 80.838028,51.407772 79.867050,55.518288 
	C77.902039,63.836971 72.861107,69.981514 65.749908,74.581245 
	C63.515293,76.026657 61.778992,75.947075 60.435829,73.162788 
	C62.426384,70.797394 64.298309,68.898682 66.531235,66.990082 
	C72.792770,65.103668 77.926010,56.664879 77.924286,48.119545 
	C77.923500,44.243690 79.385612,39.746998 75.066971,36.702560 
	C75.576454,35.959782 75.955299,35.488010 76.700256,35.012383 
	C78.042458,35.007233 79.018555,35.005936 79.994644,35.004639 
	C79.997559,35.752327 80.000473,36.500019 80.011963,37.969337 
	C80.677933,39.462402 81.335327,40.233837 81.992722,41.005272 
	C81.993713,41.448837 81.994705,41.892399 81.995399,42.668655 
z"/>
<path fill="#F8C11E" opacity="1.000000" stroke="none" 
	d="
M38.004559,73.108284 
	C36.752949,76.444962 34.714077,76.173859 32.173248,74.520332 
	C22.572969,68.272652 17.484743,59.481853 16.987621,48.026741 
	C16.923607,46.551697 16.692499,45.083912 16.271614,43.307022 
	C16.004883,42.557713 16.005333,42.114143 16.349117,41.254292 
	C18.352474,38.897282 20.012495,36.956554 21.867046,35.250488 
	C22.403992,35.978916 22.746405,36.472687 22.711912,37.056313 
	C21.604212,38.175087 20.383423,39.131943 20.219824,40.244293 
	C18.861588,49.479309 20.862295,57.936817 26.911739,65.159859 
	C27.805920,66.227509 29.746300,66.418953 31.500351,67.155365 
	C33.866886,69.232727 35.935722,71.170509 38.004559,73.108284 
z"/>
<path fill="#F5BA1A" opacity="1.000000" stroke="none" 
	d="
M21.672516,35.015831 
	C20.012495,36.956554 18.352474,38.897282 16.350006,40.921635 
	C17.441427,37.716763 18.875290,34.428265 20.651920,31.067791 
	C21.214991,31.566526 21.435295,32.137238 21.827339,33.215645 
	C21.890223,34.154171 21.781368,34.585003 21.672516,35.015831 
z"/>
<path fill="#F5BA1A" opacity="1.000000" stroke="none" 
	d="
M79.953522,34.661617 
	C79.018555,35.005936 78.042458,35.007233 76.614700,34.689316 
	C76.055672,33.938999 75.948318,33.507896 75.840958,33.076790 
	C76.199570,32.590134 76.558182,32.103474 76.960884,31.306423 
	C77.974113,32.103554 78.943260,33.211075 79.953522,34.661617 
z"/>
<path fill="#F5BA1A" opacity="1.000000" stroke="none" 
	d="
M81.985680,40.657417 
	C81.335327,40.233837 80.677933,39.462402 80.013092,38.343185 
	C80.663307,38.766788 81.320976,39.538174 81.985680,40.657417 
z"/>
<path fill="#201D16" opacity="1.000000" stroke="none" 
	d="
M38.328419,73.135094 
	C35.935722,71.170509 33.866886,69.232727 31.406601,66.790329 
	C29.723577,62.824192 28.350630,59.390202 27.167597,55.891991 
	C26.306477,53.345657 27.919315,52.794094 30.456188,52.898315 
	C33.603371,52.918678 36.305126,52.873329 39.470333,52.895855 
	C45.953568,52.918369 51.973354,52.873005 58.418053,52.898758 
	C60.560799,52.923256 62.278629,52.876629 64.420815,52.899506 
	C66.561432,52.923115 68.277687,52.877220 70.333328,53.028816 
	C69.171883,57.817528 67.671059,62.408745 66.170235,66.999962 
	C64.298309,68.898682 62.426384,70.797394 60.271904,72.875374 
	C59.686562,73.136787 59.383778,73.218941 58.599396,73.603310 
	C52.744156,74.298759 47.370514,74.691994 41.996872,75.085228 
	C40.882008,74.444122 39.767143,73.803009 38.328419,73.135094 
M62.696060,61.009079 
	C64.340218,59.583210 65.984367,58.157337 67.628517,56.731468 
	C67.297195,56.204712 66.965866,55.677959 66.634537,55.151203 
	C65.073334,55.151203 63.512131,55.151203 61.125305,55.050941 
	C59.743977,55.088097 58.362644,55.125252 56.058296,55.030174 
	C51.045055,55.074284 46.031815,55.118389 40.201679,55.005341 
	C38.817715,55.052361 37.433754,55.099380 35.243412,54.975086 
	C33.903740,55.122387 32.564068,55.269688 31.164793,55.423542 
	C31.295921,59.091545 32.325363,61.273361 36.875458,60.949181 
	C38.256451,60.911919 39.637440,60.874653 41.941517,60.969341 
	C46.954903,60.925354 51.968285,60.881367 57.798813,60.994564 
	C59.183060,60.945824 60.567310,60.897087 62.696060,61.009079 
M43.710690,72.263611 
	C48.252434,73.477631 52.667076,73.721756 56.892387,70.844345 
	C53.269997,66.954155 46.462074,65.949089 42.978630,68.622246 
	C41.604225,69.676956 40.019371,70.904663 43.710690,72.263611 
z"/>
<path fill="#EDB41A" opacity="1.000000" stroke="none" 
	d="
M42.070999,75.464737 
	C47.370514,74.691994 52.744156,74.298759 58.507965,73.839462 
	C58.650837,74.544350 58.626682,75.535110 58.119461,76.049988 
	C55.184074,79.029716 45.361298,78.843857 42.070999,75.464737 
z"/>
<path fill="#FDCE24" opacity="1.000000" stroke="none" 
	d="
M25.093281,32.585087 
	C25.989859,25.495401 31.630377,22.370010 36.957191,19.715311 
	C48.949562,13.738731 63.813705,17.690233 71.768456,28.394369 
	C72.494606,29.371496 72.595375,30.813379 72.641685,32.419205 
	C70.638718,32.145874 68.980621,31.492783 67.237762,30.495235 
	C65.889488,28.367386 66.810295,23.965815 61.908569,26.030334 
	C52.892395,20.446524 44.282200,20.872456 35.433949,25.928926 
	C30.378946,25.266396 31.625784,29.853300 29.541260,32.030098 
	C27.789522,32.251457 26.441402,32.418270 25.093281,32.585087 
z"/>
<path fill="#F44F32" opacity="1.000000" stroke="none" 
	d="
M24.819237,32.702660 
	C26.441402,32.418270 27.789522,32.251457 29.991768,32.035973 
	C33.246380,31.986746 35.646866,31.986185 38.361740,32.037178 
	C39.099907,32.095142 39.523685,32.101551 40.263462,32.309090 
	C42.402245,32.896225 44.225033,33.282234 47.425674,33.960022 
	C44.973892,36.139595 43.471111,37.475529 41.842773,38.445663 
	C37.090137,37.755173 32.465611,37.354542 27.832850,37.198750 
	C27.231609,37.178535 26.587891,38.421532 25.700272,38.936764 
	C24.654068,38.184902 23.871441,37.575680 23.088816,36.966461 
	C22.746405,36.472687 22.403992,35.978916 21.867046,35.250488 
	C21.781368,34.585003 21.890223,34.154171 22.079115,33.400654 
	C22.954500,32.992058 23.749847,32.906147 24.819237,32.702660 
z"/>
<path fill="#F44F33" opacity="1.000000" stroke="none" 
	d="
M67.322517,30.839691 
	C68.980621,31.492783 70.638718,32.145874 72.638710,32.785812 
	C73.695213,32.862404 74.409836,32.952145 75.482712,33.059341 
	C75.948318,33.507896 76.055672,33.938999 76.248581,34.693172 
	C75.955299,35.488010 75.576454,35.959782 74.848175,36.732132 
	C74.498734,37.032711 74.059280,37.080563 73.746094,36.794952 
	C66.756866,36.377415 60.080830,36.245483 53.077461,36.001266 
	C53.140305,34.932476 53.271896,33.530952 53.979088,33.120022 
	C55.144539,32.442806 56.682240,32.406216 58.366669,32.100460 
	C59.334801,31.675121 59.999294,31.248909 61.138855,30.871796 
	C63.516792,30.893829 65.419655,30.866760 67.322517,30.839691 
z"/>
<path fill="#FCCB23" opacity="1.000000" stroke="none" 
	d="
M74.059280,37.080563 
	C74.059280,37.080563 74.498734,37.032711 74.717529,37.003139 
	C79.385612,39.746998 77.923500,44.243690 77.924286,48.119545 
	C77.926010,56.664879 72.792770,65.103668 66.531235,66.990082 
	C67.671059,62.408745 69.171883,57.817528 70.335266,52.643463 
	C69.998611,51.032936 69.999397,50.005253 70.383766,48.913040 
	C70.868843,45.908115 70.970337,42.967716 71.339523,39.884026 
	C72.424568,38.854012 73.241920,37.967285 74.059280,37.080563 
z"/>
<path fill="#FCCB24" opacity="1.000000" stroke="none" 
	d="
M22.711912,37.056313 
	C23.871441,37.575680 24.654068,38.184902 25.815144,39.195477 
	C26.504570,40.067341 26.815546,40.537853 27.022455,41.385529 
	C26.605934,43.329933 25.920874,44.951740 26.138981,46.441299 
	C26.247250,47.180706 28.014734,47.677162 29.084282,48.613377 
	C29.428240,50.239685 29.719500,51.536144 30.010761,52.832603 
	C27.919315,52.794094 26.306477,53.345657 27.167597,55.891991 
	C28.350630,59.390202 29.723577,62.824192 31.108898,66.650742 
	C29.746300,66.418953 27.805920,66.227509 26.911739,65.159859 
	C20.862295,57.936817 18.861588,49.479309 20.219824,40.244293 
	C20.383423,39.131943 21.604212,38.175087 22.711912,37.056313 
z"/>
<path fill="#FCFCFB" opacity="1.000000" stroke="none" 
	d="
M56.981670,60.837383 
	C51.968285,60.881367 46.954903,60.925354 41.470078,60.497955 
	C41.005287,58.405212 41.011932,56.783852 41.018578,55.162495 
	C46.031815,55.118389 51.045055,55.074284 56.529800,55.501709 
	C56.994759,57.594620 56.988213,59.216003 56.981670,60.837383 
z"/>
<path fill="#FFD846" opacity="1.000000" stroke="none" 
	d="
M57.993141,52.827637 
	C51.973354,52.873005 45.953568,52.918369 39.410553,52.544220 
	C38.591824,50.736603 38.296322,49.348495 38.328590,48.043068 
	C39.846371,48.080833 41.036381,48.035923 42.623089,48.011765 
	C47.269943,48.018097 51.520092,48.003670 55.980225,48.230659 
	C56.792633,48.649517 57.395069,48.826958 57.998581,49.386765 
	C57.997486,50.788635 57.995316,51.808136 57.993141,52.827637 
z"/>
<path fill="#BA3442" opacity="1.000000" stroke="none" 
	d="
M43.342842,72.153320 
	C40.019371,70.904663 41.604225,69.676956 42.978630,68.622246 
	C46.462074,65.949089 53.269997,66.954155 56.892387,70.844345 
	C52.667076,73.721756 48.252434,73.477631 43.342842,72.153320 
z"/>
<path fill="#FED237" opacity="1.000000" stroke="none" 
	d="
M38.000816,47.960388 
	C38.296322,49.348495 38.591824,50.736603 38.947105,52.476341 
	C36.305126,52.873329 33.603371,52.918678 30.456188,52.898315 
	C29.719500,51.536144 29.428240,50.239685 29.388134,48.406216 
	C32.449692,45.769802 35.244610,45.090218 38.000816,47.960388 
z"/>
<path fill="#FED33A" opacity="1.000000" stroke="none" 
	d="
M58.418053,52.898758 
	C57.995316,51.808136 57.997486,50.788635 58.257793,49.160332 
	C60.893887,47.480217 62.915615,44.546642 65.944824,47.457169 
	C65.264557,49.471798 64.630508,51.150902 63.996468,52.830002 
	C62.278629,52.876629 60.560799,52.923256 58.418053,52.898758 
z"/>
<path fill="#EAE9E3" opacity="1.000000" stroke="none" 
	d="
M40.610130,55.083916 
	C41.011932,56.783852 41.005287,58.405212 41.008537,60.431976 
	C39.637440,60.874653 38.256451,60.911919 36.421684,60.495026 
	C35.995205,58.409382 36.022495,56.777893 36.049789,55.146400 
	C37.433754,55.099380 38.817715,55.052361 40.610130,55.083916 
z"/>
<path fill="#EAE9E3" opacity="1.000000" stroke="none" 
	d="
M57.390244,60.915974 
	C56.988213,59.216003 56.994759,57.594620 56.991310,55.567825 
	C58.362644,55.125252 59.743977,55.088097 61.572903,55.506866 
	C61.997517,57.591309 61.974537,59.219826 61.951553,60.848347 
	C60.567310,60.897087 59.183060,60.945824 57.390244,60.915974 
z"/>
<path fill="#FED02E" opacity="1.000000" stroke="none" 
	d="
M64.420822,52.899506 
	C64.630508,51.150902 65.264557,49.471798 66.272423,47.430923 
	C67.764229,47.705296 68.882202,48.341431 70.000183,48.977570 
	C69.999397,50.005253 69.998611,51.032936 69.995895,52.445972 
	C68.277687,52.877220 66.561432,52.923115 64.420822,52.899506 
z"/>
<path fill="#B9B4A2" opacity="1.000000" stroke="none" 
	d="
M35.646599,55.060745 
	C36.022495,56.777893 35.995205,58.409382 36.008720,60.446972 
	C32.325363,61.273361 31.295921,59.091545 31.164793,55.423542 
	C32.564068,55.269688 33.903740,55.122387 35.646599,55.060745 
z"/>
<path fill="#BBB7A5" opacity="1.000000" stroke="none" 
	d="
M62.323807,60.928711 
	C61.974537,59.219826 61.997517,57.591309 61.985714,55.556995 
	C63.512131,55.151203 65.073334,55.151203 66.634537,55.151203 
	C66.965866,55.677959 67.297195,56.204712 67.628517,56.731468 
	C65.984367,58.157337 64.340218,59.583210 62.323807,60.928711 
z"/>
<path fill="#FFD439" opacity="1.000000" stroke="none" 
	d="
M60.663784,30.822695 
	C59.999294,31.248909 59.334801,31.675121 58.197662,31.786402 
	C51.568409,24.784483 43.186905,25.084566 39.947468,32.107960 
	C39.523685,32.101551 39.099907,32.095142 38.287327,31.692879 
	C37.163948,29.562309 36.429367,27.827595 35.694786,26.092880 
	C44.282200,20.872456 52.892395,20.446524 61.799797,26.372782 
	C61.600422,28.124516 61.132103,29.473604 60.663784,30.822695 
z"/>
<path fill="#FA6140" opacity="1.000000" stroke="none" 
	d="
M35.433945,25.928926 
	C36.429367,27.827595 37.163948,29.562309 37.972942,31.641323 
	C35.646866,31.986185 33.246380,31.986746 30.395382,31.981426 
	C31.625784,29.853300 30.378946,25.266396 35.433945,25.928926 
z"/>
<path fill="#FB6540" opacity="1.000000" stroke="none" 
	d="
M61.138855,30.871796 
	C61.132103,29.473604 61.600422,28.124516 62.177513,26.432976 
	C66.810295,23.965815 65.889488,28.367386 67.237762,30.495235 
	C65.419655,30.866760 63.516792,30.893829 61.138855,30.871796 
z"/>
<path fill="#FFDA58" opacity="1.000000" stroke="none" 
	d="
M40.263462,32.309090 
	C43.186905,25.084566 51.568409,24.784483 57.894020,31.785528 
	C56.682240,32.406216 55.144539,32.442806 53.979088,33.120022 
	C53.271896,33.530952 53.140305,34.932476 53.213192,36.332211 
	C54.765587,37.856647 55.854912,38.937859 56.947685,40.331833 
	C56.707272,41.430309 56.463406,42.216022 55.819046,43.050110 
	C51.116039,46.176003 46.514076,44.777653 41.827583,43.707024 
	C41.424301,42.612667 41.147038,41.810646 40.939243,40.695473 
	C41.328583,39.858696 41.648457,39.335079 41.968330,38.811459 
	C43.471111,37.475529 44.973892,36.139595 47.425674,33.960022 
	C44.225033,33.282234 42.402245,32.896225 40.263462,32.309090 
z"/>
<path fill="#EE4125" opacity="1.000000" stroke="none" 
	d="
M41.842773,38.445663 
	C41.648457,39.335079 41.328583,39.858696 40.484818,40.693069 
	C35.682789,41.005333 31.404655,41.006847 27.126522,41.008362 
	C26.815546,40.537853 26.504570,40.067341 26.078722,39.338120 
	C26.587891,38.421532 27.231609,37.178535 27.832850,37.198750 
	C32.465611,37.354542 37.090137,37.755173 41.842773,38.445663 
z"/>
<path fill="#F04628" opacity="1.000000" stroke="none" 
	d="
M56.944237,40.019066 
	C55.854912,38.937859 54.765587,37.856647 53.540527,36.444496 
	C60.080830,36.245483 66.756866,36.377415 73.746094,36.794952 
	C73.241920,37.967285 72.424568,38.854012 70.868912,39.875557 
	C65.735153,40.013271 61.339695,40.016171 56.944237,40.019066 
z"/>
<path fill="#EA3D19" opacity="1.000000" stroke="none" 
	d="
M56.947685,40.331829 
	C61.339695,40.016171 65.735153,40.013271 70.601227,40.018845 
	C70.970337,42.967716 70.868843,45.908115 70.383766,48.913040 
	C68.882202,48.341431 67.764229,47.705296 66.318649,47.095398 
	C62.915615,44.546642 60.893887,47.480217 58.256714,48.777962 
	C57.395069,48.826958 56.792633,48.649517 56.035385,47.817165 
	C55.993557,45.775414 56.106548,44.388577 56.219543,43.001736 
	C56.463406,42.216022 56.707272,41.430309 56.947685,40.331829 
z"/>
<path fill="#EB3E19" opacity="1.000000" stroke="none" 
	d="
M27.022453,41.385525 
	C31.404655,41.006847 35.682789,41.005333 40.415352,41.006222 
	C41.147038,41.810646 41.424301,42.612667 41.810509,44.107582 
	C42.021759,45.863991 42.124073,46.927502 42.226387,47.991013 
	C41.036381,48.035923 39.846371,48.080833 38.328590,48.043068 
	C35.244610,45.090218 32.449692,45.769802 29.335438,48.076366 
	C28.014734,47.677162 26.247250,47.180706 26.138981,46.441299 
	C25.920874,44.951740 26.605934,43.329933 27.022453,41.385525 
z"/>
<path fill="#FFD850" opacity="1.000000" stroke="none" 
	d="
M42.623089,48.011765 
	C42.124073,46.927502 42.021759,45.863991 41.936523,44.399921 
	C46.514076,44.777653 51.116039,46.176003 55.819042,43.050110 
	C56.106548,44.388577 55.993557,45.775414 55.825405,47.575748 
	C51.520092,48.003670 47.269943,48.018097 42.623089,48.011765 
z"/>
</svg>