<svg version="1.1" id="Layer_1" xmlns="http://www.w3.org/2000/svg" xmlns:xlink="http://www.w3.org/1999/xlink" x="0px" y="0px"
	 width="100%" viewBox="0 0 767 118" enable-background="new 0 0 767 118" xml:space="preserve">
<path fill="#000000" opacity="1.000000" stroke="none" 
	d="
M584.000000,119.000000 
	C389.333344,119.000000 195.166672,119.000000 1.000000,119.000000 
	C1.000000,79.666664 1.000000,40.333332 1.000000,1.000000 
	C256.666656,1.000000 512.333313,1.000000 768.000000,1.000000 
	C768.000000,40.333332 768.000000,79.666664 768.000000,119.000000 
	C706.833313,119.000000 645.666687,119.000000 584.000000,119.000000 
M647.017578,54.978798 
	C647.017578,54.978798 647.094421,54.939335 646.815308,54.284588 
	C643.890869,52.818058 640.966431,51.351524 637.753601,49.219406 
	C634.788513,47.606640 632.401306,45.550701 634.658691,41.942448 
	C636.392639,39.170937 640.620667,39.353542 643.691223,42.263771 
	C645.451538,43.932201 647.441284,45.773708 648.244446,47.939098 
	C649.434753,51.148232 651.121277,51.484421 653.701416,50.720036 
	C653.701416,44.917171 653.701416,39.500221 653.701416,34.000000 
	C649.084656,34.000000 644.756470,34.157761 640.443604,33.967915 
	C630.781006,33.542580 625.442749,38.363838 623.071045,47.152985 
	C621.693909,52.256535 626.964478,60.367290 635.264221,64.745308 
	C638.900085,66.663193 642.350647,68.932510 645.997559,71.797791 
	C647.771973,74.517525 647.058228,76.850822 644.416626,79.076843 
	C644.114807,79.263130 643.960999,79.533592 643.185425,79.999573 
	C640.790283,80.055275 638.395081,80.110970 635.263062,80.009666 
	C632.329712,75.993546 629.396362,71.977425 625.973267,67.290894 
	C625.687073,67.290894 623.951233,67.290894 622.000000,67.290894 
	C622.000000,70.722504 621.799805,73.882812 622.057922,77.005219 
	C622.302246,79.960083 623.027588,82.875191 623.573181,85.989296 
	C624.533264,85.989296 625.844727,86.400261 626.453857,85.920143 
	C629.552124,83.478020 632.269653,84.084457 634.990234,86.457283 
	C635.329224,86.752930 635.858459,86.887016 636.322449,86.974365 
	C644.656860,88.543526 653.559021,84.303032 656.958862,77.162598 
	C660.050720,70.668694 657.721252,62.684151 650.767700,56.262695 
	C649.531006,55.809212 648.294312,55.355728 647.017578,54.978798 
M305.040009,56.439693 
	C307.906647,52.247501 310.015045,54.288795 311.744476,57.384769 
	C316.618317,66.109901 321.307281,74.939537 326.279694,83.607185 
	C327.106628,85.048691 328.918121,86.716469 330.399536,86.845490 
	C335.147034,87.258957 339.953156,86.999123 345.273407,86.999123 
	C344.350189,84.893898 343.797699,83.237404 342.945496,81.752960 
	C335.636536,69.021538 328.522522,56.165958 320.761597,43.714401 
	C318.666321,40.352779 319.792480,38.939476 321.706604,36.754189 
	C327.535950,30.099026 333.325012,23.406717 339.017914,16.634846 
	C340.950439,14.336044 342.104462,14.357850 343.597656,17.068365 
	C349.042664,26.952267 354.229950,37.015221 360.313385,46.498142 
	C364.882446,53.620461 366.743469,60.880939 366.089447,69.205170 
	C365.627411,75.085815 366.000000,81.032036 366.000000,86.790031 
	C371.364075,86.790031 375.983643,86.790031 381.000000,86.790031 
	C381.000000,78.631859 380.820557,70.670624 381.092438,62.724834 
	C381.194489,59.742809 381.739929,56.471622 383.125305,53.891884 
	C388.392059,44.084503 394.131897,34.532391 399.596680,24.829536 
	C402.013489,20.538425 404.195587,16.115143 406.876556,11.003925 
	C401.165497,11.003925 396.530701,10.848374 391.920868,11.118959 
	C390.838531,11.182491 389.462555,12.477983 388.866394,13.561445 
	C385.445068,19.779339 382.308777,26.154175 378.882477,32.369183 
	C377.404602,35.049919 375.462921,37.474949 373.390472,40.517422 
	C368.631500,31.522709 364.092194,23.506184 360.150269,15.205949 
	C358.646545,12.039660 357.117798,10.784369 353.583282,10.912060 
	C345.761383,11.194641 337.914062,10.802584 330.095520,11.128224 
	C327.934784,11.218220 325.212280,12.313187 323.820984,13.892628 
	C317.567322,20.991909 311.773315,28.493576 305.657715,35.718216 
	C303.208130,38.611980 300.357513,41.166214 296.778015,44.800293 
	C296.778015,32.541912 296.778015,21.932314 296.778015,11.261960 
	C292.099731,11.261960 287.698212,11.261960 283.000000,11.261960 
	C283.000000,23.989059 283.000000,36.456123 283.000000,48.923183 
	C283.000000,61.525673 283.000000,74.128159 283.000000,86.711433 
	C287.954224,86.711433 292.356171,86.711433 296.912811,86.711433 
	C297.574280,76.139626 294.000336,64.693192 305.040009,56.439693 
M126.338600,61.854939 
	C130.139389,72.421585 136.043793,81.081078 146.701614,86.006058 
	C161.170242,92.692009 179.502899,87.782234 188.732773,74.862083 
	C197.548569,62.521553 199.015472,48.910904 194.770264,35.089958 
	C190.058121,19.748823 179.927094,10.712557 164.265274,9.167751 
	C147.002655,7.465047 132.504532,17.856407 127.017105,34.425858 
	C124.113411,43.193649 124.602112,52.115910 126.338600,61.854939 
M110.474792,65.979919 
	C108.939354,62.850861 107.403915,59.721802 105.868950,56.593719 
	C117.038101,51.388767 120.964676,42.272629 119.984131,32.029453 
	C119.115845,22.958954 112.085655,13.742633 102.631523,12.528005 
	C89.638557,10.858721 76.405312,11.059649 63.267952,10.458925 
	C63.267952,36.630497 63.267952,61.671440 63.267952,86.724213 
	C68.271751,86.724213 73.002281,86.724213 78.136398,86.724213 
	C78.136398,77.388420 78.136398,68.321877 78.136398,59.000000 
	C80.683205,59.000000 82.873138,59.302189 84.945312,58.936703 
	C89.177261,58.190277 91.310883,59.971397 93.065430,63.739491 
	C96.328606,70.747551 100.093369,77.526596 103.797066,84.320427 
	C104.398552,85.423767 105.718636,86.810577 106.777138,86.873184 
	C111.470718,87.150772 116.190025,86.993423 122.119965,86.993423 
	C118.008942,79.476898 114.480728,73.025970 110.474792,65.979919 
M438.637634,79.944565 
	C437.936157,79.606163 437.234650,79.267754 436.321869,78.827415 
	C436.321869,81.401138 436.321869,83.605156 436.321869,86.000000 
	C448.291595,86.000000 459.941742,86.100494 471.588806,85.954437 
	C476.829468,85.888733 482.124878,85.717995 487.287079,84.906021 
	C495.178650,83.664742 500.981689,78.792610 502.649750,71.201454 
	C504.198883,64.151474 503.806610,56.535290 496.947388,51.514507 
	C493.552429,49.029469 489.827759,46.994884 486.159637,44.698509 
	C486.282745,44.591034 486.566833,44.237877 486.934235,44.037640 
	C495.391144,39.429012 496.084991,31.471863 494.808990,23.480724 
	C493.743011,16.804964 488.513550,13.136034 482.056702,11.591177 
	C480.008270,11.101073 477.833038,10.978899 475.714630,10.969956 
	C462.865479,10.915709 450.015930,10.942920 437.310913,10.942920 
	C437.310913,12.687645 437.310913,14.768328 437.310913,16.825571 
	C445.535217,17.213203 446.812653,18.097258 446.931671,25.506105 
	C447.161896,39.833427 447.212799,54.171436 446.920441,68.496490 
	C446.738617,77.405113 445.588318,78.629166 438.637634,79.944565 
M257.470306,85.070297 
	C265.756927,81.044846 269.821075,73.701767 273.465759,65.474892 
	C268.553467,63.385796 264.165833,61.519810 260.701935,60.046680 
	C257.057983,64.453766 254.550140,69.129654 250.673126,71.864662 
	C239.492172,79.752167 226.996429,71.796394 223.122192,60.881985 
	C220.064621,52.268211 220.039917,43.512402 223.903107,34.823242 
	C226.982544,27.896898 233.317932,23.060442 240.757996,23.000021 
	C248.346329,22.938398 252.804092,26.321419 256.122406,34.326077 
	C256.574646,35.417023 258.209900,36.985741 258.969574,36.821072 
	C263.305389,35.881229 267.541840,34.483288 272.259033,33.110966 
	C270.422272,28.963865 269.476166,24.846336 267.113312,21.843721 
	C258.007996,10.273186 245.768829,6.727217 231.709656,10.084394 
	C219.864258,12.912947 212.054810,20.496107 207.924042,32.039597 
	C204.637787,41.223038 204.163940,50.547134 206.092819,59.955299 
	C207.819641,68.378052 211.246933,76.387375 218.276062,81.515686 
	C230.131363,90.165024 243.265060,91.441734 257.470306,85.070297 
M528.010071,34.024841 
	C526.710083,34.671028 525.426819,35.353729 524.107605,35.957912 
	C505.065063,44.678993 502.842468,65.110580 515.579102,78.670975 
	C527.462463,91.322960 547.817444,90.240273 559.026794,75.600014 
	C567.997070,63.884251 564.999634,45.447208 550.813782,37.340847 
	C543.913757,33.397919 536.488708,33.060360 528.010071,34.024841 
M582.044495,94.621880 
	C580.195557,98.222923 579.812805,102.778175 574.731934,104.116013 
	C571.433350,104.984558 569.382080,107.647652 570.155518,111.140015 
	C570.505676,112.721115 572.683472,115.217278 573.716248,115.070816 
	C576.418091,114.687683 579.611328,113.696121 581.374390,111.799599 
	C583.567505,109.440514 584.646851,105.984482 585.990723,102.907616 
	C593.776550,85.081314 601.347351,67.158638 609.369873,49.440166 
	C610.977905,45.888771 611.254517,40.607517 616.765503,40.541237 
	C616.765503,38.511303 616.765503,36.913456 616.765503,35.233437 
	C610.440369,35.233437 604.351318,35.233437 598.211182,35.233437 
	C598.211182,37.237007 598.211182,39.005039 598.211182,40.947712 
	C603.586792,40.566795 603.786560,43.429657 602.336304,47.206535 
	C600.437744,52.150890 598.523987,57.091267 596.485474,61.978607 
	C595.980164,63.190086 594.969116,64.190643 593.829468,65.797173 
	C590.734070,58.517933 587.965393,52.045029 585.231323,45.557514 
	C584.223694,43.166447 585.480225,41.817951 587.606201,41.212776 
	C588.954346,40.829044 590.421631,40.864361 592.044739,40.689159 
	C591.946716,38.653893 591.863464,36.924416 591.784302,35.279953 
	C582.287170,35.279953 573.198303,35.279953 564.119385,35.279953 
	C564.119385,37.207417 564.119385,38.854408 564.119385,39.103531 
	C566.949097,41.612328 569.773926,43.015312 570.837708,45.254799 
	C574.960083,53.933533 578.104980,63.088108 582.416138,71.662064 
	C586.276367,79.339104 588.065125,86.515991 582.044495,94.621880 
z"/>
<path fill="#DCDCDC" opacity="1.000000" stroke="none" 
	d="
M304.787354,56.708405 
	C294.000336,64.693192 297.574280,76.139626 296.912811,86.711433 
	C292.356171,86.711433 287.954224,86.711433 283.000000,86.711433 
	C283.000000,74.128159 283.000000,61.525673 283.000000,48.923183 
	C283.000000,36.456123 283.000000,23.989059 283.000000,11.261960 
	C287.698212,11.261960 292.099731,11.261960 296.778015,11.261960 
	C296.778015,21.932314 296.778015,32.541912 296.778015,44.800293 
	C300.357513,41.166214 303.208130,38.611980 305.657715,35.718216 
	C311.773315,28.493576 317.567322,20.991909 323.820984,13.892628 
	C325.212280,12.313187 327.934784,11.218220 330.095520,11.128224 
	C337.914062,10.802584 345.761383,11.194641 353.583282,10.912060 
	C357.117798,10.784369 358.646545,12.039660 360.150269,15.205949 
	C364.092194,23.506184 368.631500,31.522709 373.390472,40.517422 
	C375.462921,37.474949 377.404602,35.049919 378.882477,32.369183 
	C382.308777,26.154175 385.445068,19.779339 388.866394,13.561445 
	C389.462555,12.477983 390.838531,11.182491 391.920868,11.118959 
	C396.530701,10.848374 401.165497,11.003925 406.876556,11.003925 
	C404.195587,16.115143 402.013489,20.538425 399.596680,24.829536 
	C394.131897,34.532391 388.392059,44.084503 383.125305,53.891884 
	C381.739929,56.471622 381.194489,59.742809 381.092438,62.724834 
	C380.820557,70.670624 381.000000,78.631859 381.000000,86.790031 
	C375.983643,86.790031 371.364075,86.790031 366.000000,86.790031 
	C366.000000,81.032036 365.627411,75.085815 366.089447,69.205170 
	C366.743469,60.880939 364.882446,53.620461 360.313385,46.498142 
	C354.229950,37.015221 349.042664,26.952267 343.597656,17.068365 
	C342.104462,14.357850 340.950439,14.336044 339.017914,16.634846 
	C333.325012,23.406717 327.535950,30.099026 321.706604,36.754189 
	C319.792480,38.939476 318.666321,40.352779 320.761597,43.714401 
	C328.522522,56.165958 335.636536,69.021538 342.945496,81.752960 
	C343.797699,83.237404 344.350189,84.893898 345.273407,86.999123 
	C339.953156,86.999123 335.147034,87.258957 330.399536,86.845490 
	C328.918121,86.716469 327.106628,85.048691 326.279694,83.607185 
	C321.307281,74.939537 316.618317,66.109901 311.744476,57.384769 
	C310.015045,54.288795 307.906647,52.247501 304.787354,56.708405 
z"/>
<path fill="#DCDCDC" opacity="1.000000" stroke="none" 
	d="
M126.184158,61.457016 
	C124.602112,52.115910 124.113411,43.193649 127.017105,34.425858 
	C132.504532,17.856407 147.002655,7.465047 164.265274,9.167751 
	C179.927094,10.712557 190.058121,19.748823 194.770264,35.089958 
	C199.015472,48.910904 197.548569,62.521553 188.732773,74.862083 
	C179.502899,87.782234 161.170242,92.692009 146.701614,86.006058 
	C136.043793,81.081078 130.139389,72.421585 126.184158,61.457016 
M179.998016,40.753521 
	C179.657837,39.518841 179.427383,38.240829 178.959671,37.056515 
	C175.982697,29.518167 171.081116,24.003511 162.613205,23.060274 
	C154.703796,22.179247 147.536942,26.488039 143.978790,34.516624 
	C138.997162,45.757153 139.645065,56.921940 146.187408,67.425575 
	C149.873962,73.344276 158.682663,75.942230 165.165497,74.466331 
	C178.804611,71.361221 183.434525,51.458126 179.998016,40.753521 
z"/>
<path fill="#DCDCDC" opacity="1.000000" stroke="none" 
	d="
M110.713654,66.277481 
	C114.480728,73.025970 118.008942,79.476898 122.119965,86.993423 
	C116.190025,86.993423 111.470718,87.150772 106.777138,86.873184 
	C105.718636,86.810577 104.398552,85.423767 103.797066,84.320427 
	C100.093369,77.526596 96.328606,70.747551 93.065430,63.739491 
	C91.310883,59.971397 89.177261,58.190277 84.945312,58.936703 
	C82.873138,59.302189 80.683205,59.000000 78.136398,59.000000 
	C78.136398,68.321877 78.136398,77.388420 78.136398,86.724213 
	C73.002281,86.724213 68.271751,86.724213 63.267952,86.724213 
	C63.267952,61.671440 63.267952,36.630497 63.267952,10.458925 
	C76.405312,11.059649 89.638557,10.858721 102.631523,12.528005 
	C112.085655,13.742633 119.115845,22.958954 119.984131,32.029453 
	C120.964676,42.272629 117.038101,51.388767 105.868950,56.593719 
	C107.403915,59.721802 108.939354,62.850861 110.713654,66.277481 
M97.138863,45.015724 
	C102.200996,43.057640 104.268173,39.353516 104.054100,33.967968 
	C103.879982,29.587851 101.471542,26.326572 97.828224,25.561405 
	C91.414299,24.214359 84.734833,24.131701 78.347282,23.536451 
	C78.347282,31.783535 78.347282,38.834320 78.347282,46.392773 
	C84.586014,45.970966 90.449768,45.574512 97.138863,45.015724 
z"/>
<path fill="#DCDCDC" opacity="1.000000" stroke="none" 
	d="
M439.053345,79.969391 
	C445.588318,78.629166 446.738617,77.405113 446.920441,68.496490 
	C447.212799,54.171436 447.161896,39.833427 446.931671,25.506105 
	C446.812653,18.097258 445.535217,17.213203 437.310913,16.825571 
	C437.310913,14.768328 437.310913,12.687645 437.310913,10.942920 
	C450.015930,10.942920 462.865479,10.915709 475.714630,10.969956 
	C477.833038,10.978899 480.008270,11.101073 482.056702,11.591177 
	C488.513550,13.136034 493.743011,16.804964 494.808990,23.480724 
	C496.084991,31.471863 495.391144,39.429012 486.934235,44.037640 
	C486.566833,44.237877 486.282745,44.591034 486.159637,44.698509 
	C489.827759,46.994884 493.552429,49.029469 496.947388,51.514507 
	C503.806610,56.535290 504.198883,64.151474 502.649750,71.201454 
	C500.981689,78.792610 495.178650,83.664742 487.287079,84.906021 
	C482.124878,85.717995 476.829468,85.888733 471.588806,85.954437 
	C459.941742,86.100494 448.291595,86.000000 436.321869,86.000000 
	C436.321869,83.605156 436.321869,81.401138 436.321869,78.827415 
	C437.234650,79.267754 437.936157,79.606163 439.053345,79.969391 
M465.927124,78.969208 
	C466.592865,78.988510 467.292358,78.880600 467.919037,79.046974 
	C473.592834,80.553352 480.805695,78.520287 483.031158,74.741753 
	C487.267670,67.548714 487.010834,59.889008 482.373749,54.860214 
	C476.696533,48.703445 469.387604,50.130058 462.000000,50.118938 
	C462.000000,57.323723 462.162537,64.128120 461.929199,70.918907 
	C461.817963,74.156128 462.472931,76.749474 465.927124,78.969208 
M462.000000,32.480095 
	C462.000000,35.911766 462.000000,39.343441 462.000000,42.705681 
	C468.977325,43.696972 475.143402,42.997223 478.542511,36.779373 
	C481.345001,31.652945 480.941071,25.692278 477.373199,21.132141 
	C473.629120,16.346823 467.808014,16.555323 462.000000,17.307890 
	C462.000000,22.239128 462.000000,26.862930 462.000000,32.480095 
z"/>
<path fill="#DCDCDC" opacity="1.000000" stroke="none" 
	d="
M257.187927,85.340401 
	C243.265060,91.441734 230.131363,90.165024 218.276062,81.515686 
	C211.246933,76.387375 207.819641,68.378052 206.092819,59.955299 
	C204.163940,50.547134 204.637787,41.223038 207.924042,32.039597 
	C212.054810,20.496107 219.864258,12.912947 231.709656,10.084394 
	C245.768829,6.727217 258.007996,10.273186 267.113312,21.843721 
	C269.476166,24.846336 270.422272,28.963865 272.259033,33.110966 
	C267.541840,34.483288 263.305389,35.881229 258.969574,36.821072 
	C258.209900,36.985741 256.574646,35.417023 256.122406,34.326077 
	C252.804092,26.321419 248.346329,22.938398 240.757996,23.000021 
	C233.317932,23.060442 226.982544,27.896898 223.903107,34.823242 
	C220.039917,43.512402 220.064621,52.268211 223.122192,60.881985 
	C226.996429,71.796394 239.492172,79.752167 250.673126,71.864662 
	C254.550140,69.129654 257.057983,64.453766 260.701935,60.046680 
	C264.165833,61.519810 268.553467,63.385796 273.465759,65.474892 
	C269.821075,73.701767 265.756927,81.044846 257.187927,85.340401 
z"/>
<path fill="#DCDCDC" opacity="1.000000" stroke="none" 
	d="
M528.433960,34.013542 
	C536.488708,33.060360 543.913757,33.397919 550.813782,37.340847 
	C564.999634,45.447208 567.997070,63.884251 559.026794,75.600014 
	C547.817444,90.240273 527.462463,91.322960 515.579102,78.670975 
	C502.842468,65.110580 505.065063,44.678993 524.107605,35.957912 
	C525.426819,35.353729 526.710083,34.671028 528.433960,34.013542 
M548.009155,70.242744 
	C549.415466,62.174873 550.387756,54.212399 546.136292,46.508335 
	C543.659485,42.020077 540.120911,39.612206 535.145813,40.082157 
	C530.123230,40.556591 526.896973,43.455502 524.832947,48.301029 
	C522.260681,54.339737 522.321411,60.508934 523.163330,66.612328 
	C523.834473,71.477554 525.478088,76.310013 530.345642,79.086449 
	C537.096008,82.936829 544.360535,80.798836 548.009155,70.242744 
z"/>
<path fill="#DCDCDC" opacity="1.000000" stroke="none" 
	d="
M582.276001,94.307678 
	C588.065125,86.515991 586.276367,79.339104 582.416138,71.662064 
	C578.104980,63.088108 574.960083,53.933533 570.837708,45.254799 
	C569.773926,43.015312 566.949097,41.612328 564.119385,39.103531 
	C564.119385,38.854408 564.119385,37.207417 564.119385,35.279953 
	C573.198303,35.279953 582.287170,35.279953 591.784302,35.279953 
	C591.863464,36.924416 591.946716,38.653893 592.044739,40.689159 
	C590.421631,40.864361 588.954346,40.829044 587.606201,41.212776 
	C585.480225,41.817951 584.223694,43.166447 585.231323,45.557514 
	C587.965393,52.045029 590.734070,58.517933 593.829468,65.797173 
	C594.969116,64.190643 595.980164,63.190086 596.485474,61.978607 
	C598.523987,57.091267 600.437744,52.150890 602.336304,47.206535 
	C603.786560,43.429657 603.586792,40.566795 598.211182,40.947712 
	C598.211182,39.005039 598.211182,37.237007 598.211182,35.233437 
	C604.351318,35.233437 610.440369,35.233437 616.765503,35.233437 
	C616.765503,36.913456 616.765503,38.511303 616.765503,40.541237 
	C611.254517,40.607517 610.977905,45.888771 609.369873,49.440166 
	C601.347351,67.158638 593.776550,85.081314 585.990723,102.907616 
	C584.646851,105.984482 583.567505,109.440514 581.374390,111.799599 
	C579.611328,113.696121 576.418091,114.687683 573.716248,115.070816 
	C572.683472,115.217278 570.505676,112.721115 570.155518,111.140015 
	C569.382080,107.647652 571.433350,104.984558 574.731934,104.116013 
	C579.812805,102.778175 580.195557,98.222923 582.276001,94.307678 
z"/>
<path fill="#DCDCDC" opacity="1.000000" stroke="none" 
	d="
M645.885315,71.042252 
	C642.350647,68.932510 638.900085,66.663193 635.264221,64.745308 
	C626.964478,60.367290 621.693909,52.256535 623.071045,47.152985 
	C625.442749,38.363838 630.781006,33.542580 640.443604,33.967915 
	C644.756470,34.157761 649.084656,34.000000 653.701416,34.000000 
	C653.701416,39.500221 653.701416,44.917171 653.701416,50.720036 
	C651.121277,51.484421 649.434753,51.148232 648.244446,47.939098 
	C647.441284,45.773708 645.451538,43.932201 643.691223,42.263771 
	C640.620667,39.353542 636.392639,39.170937 634.658691,41.942448 
	C632.401306,45.550701 634.788513,47.606640 637.953003,49.900204 
	C641.133057,52.033783 644.113770,53.486565 647.094421,54.939339 
	C647.094421,54.939335 647.017578,54.978798 647.080505,55.267147 
	C648.443359,55.999096 649.743225,56.442696 651.043152,56.886299 
	C657.721252,62.684151 660.050720,70.668694 656.958862,77.162598 
	C653.559021,84.303032 644.656860,88.543526 636.322449,86.974365 
	C635.858459,86.887016 635.329224,86.752930 634.990234,86.457283 
	C632.269653,84.084457 629.552124,83.478020 626.453857,85.920143 
	C625.844727,86.400261 624.533264,85.989296 623.573181,85.989296 
	C623.027588,82.875191 622.302246,79.960083 622.057922,77.005219 
	C621.799805,73.882812 622.000000,70.722504 622.000000,67.290894 
	C623.951233,67.290894 625.687073,67.290894 625.973267,67.290894 
	C629.396362,71.977425 632.329712,75.993546 635.721558,80.422867 
	C637.819519,83.666397 640.218628,84.610756 643.346252,83.697571 
	C646.206604,82.862419 645.571472,81.449066 643.955139,79.888229 
	C643.960999,79.533592 644.114807,79.263130 645.075073,79.027176 
	C647.144226,78.101974 649.538391,77.428711 649.768372,76.310341 
	C650.309631,73.678688 649.669006,70.949005 645.885315,71.042252 
z"/>
<path fill="#DCDCDC" opacity="1.000000" stroke="none" 
	d="
M643.570312,79.943901 
	C645.571472,81.449066 646.206604,82.862419 643.346252,83.697571 
	C640.218628,84.610756 637.819519,83.666397 636.090027,80.501373 
	C638.395081,80.110970 640.790283,80.055275 643.570312,79.943901 
z"/>
<path fill="#DCDCDC" opacity="1.000000" stroke="none" 
	d="
M645.941406,71.420029 
	C649.669006,70.949005 650.309631,73.678688 649.768372,76.310341 
	C649.538391,77.428711 647.144226,78.101974 645.309570,78.967514 
	C647.058228,76.850822 647.771973,74.517525 645.941406,71.420029 
z"/>
<path fill="#DCDCDC" opacity="1.000000" stroke="none" 
	d="
M646.954834,54.611969 
	C644.113770,53.486565 641.133057,52.033783 638.097168,50.232994 
	C640.966431,51.351524 643.890869,52.818058 646.954834,54.611969 
z"/>
<path fill="#DCDCDC" opacity="1.000000" stroke="none" 
	d="
M650.905396,56.574497 
	C649.743225,56.442696 648.443359,55.999096 647.100525,55.228870 
	C648.294312,55.355728 649.531006,55.809212 650.905396,56.574497 
z"/>
<path fill="#000000" opacity="1.000000" stroke="none" 
	d="
M180.002533,41.187553 
	C183.434525,51.458126 178.804611,71.361221 165.165497,74.466331 
	C158.682663,75.942230 149.873962,73.344276 146.187408,67.425575 
	C139.645065,56.921940 138.997162,45.757153 143.978790,34.516624 
	C147.536942,26.488039 154.703796,22.179247 162.613205,23.060274 
	C171.081116,24.003511 175.982697,29.518167 178.959671,37.056515 
	C179.427383,38.240829 179.657837,39.518841 180.002533,41.187553 
z"/>
<path fill="#000000" opacity="1.000000" stroke="none" 
	d="
M96.726196,45.096893 
	C90.449768,45.574512 84.586014,45.970966 78.347282,46.392773 
	C78.347282,38.834320 78.347282,31.783535 78.347282,23.536451 
	C84.734833,24.131701 91.414299,24.214359 97.828224,25.561405 
	C101.471542,26.326572 103.879982,29.587851 104.054100,33.967968 
	C104.268173,39.353516 102.200996,43.057640 96.726196,45.096893 
z"/>
<path fill="#000000" opacity="1.000000" stroke="none" 
	d="
M465.539795,78.819366 
	C462.472931,76.749474 461.817963,74.156128 461.929199,70.918907 
	C462.162537,64.128120 462.000000,57.323723 462.000000,50.118938 
	C469.387604,50.130058 476.696533,48.703445 482.373749,54.860214 
	C487.010834,59.889008 487.267670,67.548714 483.031158,74.741753 
	C480.805695,78.520287 473.592834,80.553352 467.919037,79.046974 
	C467.292358,78.880600 466.592865,78.988510 465.539795,78.819366 
z"/>
<path fill="#000000" opacity="1.000000" stroke="none" 
	d="
M462.000000,31.983414 
	C462.000000,26.862930 462.000000,22.239128 462.000000,17.307890 
	C467.808014,16.555323 473.629120,16.346823 477.373199,21.132141 
	C480.941071,25.692278 481.345001,31.652945 478.542511,36.779373 
	C475.143402,42.997223 468.977325,43.696972 462.000000,42.705681 
	C462.000000,39.343441 462.000000,35.911766 462.000000,31.983414 
z"/>
<path fill="#000000" opacity="1.000000" stroke="none" 
	d="
M547.990723,70.663605 
	C544.360535,80.798836 537.096008,82.936829 530.345642,79.086449 
	C525.478088,76.310013 523.834473,71.477554 523.163330,66.612328 
	C522.321411,60.508934 522.260681,54.339737 524.832947,48.301029 
	C526.896973,43.455502 530.123230,40.556591 535.145813,40.082157 
	C540.120911,39.612206 543.659485,42.020077 546.136292,46.508335 
	C550.387756,54.212399 549.415466,62.174873 547.990723,70.663605 
z"/>
</svg>