<?xml version="1.0" encoding="utf-8"?>
<!-- Generator: Adobe Illustrator 25.4.1, SVG Export Plug-In . SVG Version: 6.00 Build 0)  -->
<svg version="1.1" id="Layer_1" xmlns="http://www.w3.org/2000/svg" xmlns:xlink="http://www.w3.org/1999/xlink" x="0px" y="0px"
	 viewBox="0 0 800 118" style="enable-background:new 0 0 800 118;" xml:space="preserve">
<style type="text/css">
	.st0{fill:#FFFFFF;}
</style>
<path class="st0" d="M355.3,74.4c2.3,4.2,4.3,8.2,6.7,12.6c-5.5,0-10.3,0.2-15.1-0.1c-1.2-0.1-2.8-1.3-3.5-2.5
	c-5-8.6-9.9-17.3-14.8-26c-3.2-5.8-3.2-5.8-7.6-1.3c-4.9,5-9,10.2-7.6,18.1c0.7,3.7,0.1,7.6,0.1,11.6c-4.7,0-9.1,0-13.8,0
	c0-25.1,0-50.2,0-75.5c4.5,0,8.9,0,13.5,0c0,10.7,0,21.3,0,33.5c3.5-3.6,6.4-6.1,8.8-8.9c6.2-7.3,12.1-14.9,18.4-22.2
	c1.3-1.5,3.9-2.4,5.9-2.5c7.8-0.3,15.7,0,23.5-0.2c3.3-0.1,5.2,0.7,6.7,4.1c3.9,8.4,8.5,16.6,13.3,25.6c2.1-3.2,4-5.7,5.5-8.4
	c3.4-6.2,6.5-12.5,10-18.7c0.6-1.1,2-2.3,3.1-2.4c4.6-0.3,9.2-0.1,14.9-0.1c-2.7,5.1-4.9,9.5-7.3,13.8c-5.5,9.7-11.2,19.2-16.4,28.9
	c-1.4,2.6-2,5.8-2.1,8.8c-0.3,8-0.1,15.9-0.1,24.2c-5,0-9.7,0-15,0c0-5.7-0.3-11.5,0.1-17.3c0.6-8.3-1-15.6-5.6-22.7
	c-6.2-9.6-11.4-19.7-16.9-29.7c-1.6-2.9-2.7-2.5-4.5-0.3c-5.6,6.6-11.2,13.3-17,19.7c-2.3,2.5-3.4,4.3-1.1,7.8
	C343.6,53.9,349.2,64.1,355.3,74.4z"/>
<path class="st0" d="M202.3,78.7c-16.9,15.3-38,12.5-50.6-1.2c-9-9.7-11.6-21.9-9.9-34.5c1.7-13.4,8-24.3,20.9-30.6
	c17.7-8.6,39.8-0.1,47.1,19C216.3,48.6,214,64.1,202.3,78.7 M190.5,69.5c7.2-9.8,9-20.5,5-32.1c-5.4-15.9-21.7-18.7-31.3-8.6
	c-9.3,9.8-9.1,30.4,0.1,40.3C171.1,76.7,179,76.9,190.5,69.5z"/>
<path class="st0" d="M135.5,42.6c-2.6,6.6-6.7,11.3-13.3,14c5.4,10,10.7,19.8,16.4,30.4c-5.7,0-10.1,0.2-14.6-0.1
	c-1.2-0.1-2.9-1.3-3.5-2.4c-4.6-8.3-8.9-16.7-13.4-25.3c-3.9,0-8,0-12.4,0c0,9.3,0,18.3,0,27.6c-5.1,0-9.9,0-14.8,0
	c0-25.2,0-50.3,0-76.7c13.9,1,27.8,0.8,41.2,3.2C134.2,15.7,139,31.8,135.5,42.6 M98.1,24c-1.6,0.2-3.8-0.9-3.7,2.4
	c0.2,6.4,0,12.9,0,19.6c5.3,0,10.3,0.1,15.2,0c5.5-0.1,10.4-4.5,10.8-9.3c0.5-6.8-1.9-10.4-8.8-11.6C107.6,24.3,103.3,24.3,98.1,24z
	"/>
<path class="st0" d="M462.5,72c0.3-1.9,0.9-3.3,0.9-4.7c0.1-13.5,0-27,0-40.5c0-0.8,0.1-1.7,0-2.5c-1.1-6.9-1.4-7.1-9.7-7.6
	c0-2.1,0-4.1,0-5.8c12.9,0,25.9,0,38.9,0c1.8,0,3.7-0.2,5.4,0.3c6.4,1.8,12,5.2,13.2,12.1c1.3,8,0.5,15.9-7.8,20.6
	c-0.4,0.2-0.7,0.5-0.9,0.6c3.7,2.4,7.6,4.5,11.1,7.1c6.8,5.1,7,12.7,5.4,19.7c-1.6,7.4-7.5,12-15,13.4c-4.5,0.9-9.1,1-13.7,1.1
	c-12.5,0.1-24.9,0-37.7,0c0-2.4,0-4.4,0-5.8c2.8-0.7,5.7-0.7,7.8-2.1C461.9,77.2,461.9,74.4,462.5,72 M478.5,54.6c0,6-0.3,12,0.2,18
	c0.2,2.1,1.6,5.1,3.3,5.9c5.5,2.6,11.5,1.7,16-1.9c4.4-3.5,5.6-9.3,4.4-14.7c-1.2-5.3-3.9-10.1-10.2-10.9c-3.4-0.4-6.8-0.6-10.2-1
	C478.8,49.5,478.1,51.1,478.5,54.6 M479.2,17.1c0,8.5,0,17.1,0,25.9c1.4,0,3,0,4.6,0c6.7-0.1,11.8-4.4,12.7-10.6
	c1.1-7.6-2.5-13.5-9.5-15.1C484.8,16.7,482.4,17.1,479.2,17.1z"/>
<path class="st0" d="M271,86.8c-12.8,3.8-24.7,2.9-35.5-4.9c-7.5-5.4-11-13.4-12.9-22c-2.1-9.6-1.4-19.1,1.9-28.3
	c4.1-11.2,11.9-18.7,23.6-21.5c14.2-3.4,26.6,0.3,35.8,12c2.3,2.9,3.1,6.9,4.9,11.1c-4.9,1.4-9.6,2.7-14.4,4.1
	c-0.6-1-1.2-1.7-1.5-2.6c-3.1-7.8-7.6-11.5-14.6-11.6c-8.5-0.1-14.4,4.3-17.6,10.9c-4.1,8.7-4.4,18-1,26.9
	c4.2,11.2,16.2,18.8,27.9,10.9c3.9-2.6,6.2-7.6,9.5-11.9c3.7,1.6,8,3.4,12.8,5.5C286.2,74.9,280.7,82.4,271,86.8z"/>
<path class="st0" d="M553.2,33.3c10,0.5,17.8,4.6,23.1,12.4c8.2,12,4.7,29.5-8.9,37.3c-12.5,7.1-26.1,5.5-35.2-4.3
	c-12.9-13.8-10.6-33.9,8.2-42.7C544.2,34.3,548.7,34,553.2,33.3 M561,77c5.6-6,6.3-21.6,1.6-30.5c-2.4-4.6-6-6.9-11-6.4
	c-5,0.5-8.2,3.4-10.3,8.2c-3.2,7.7-2.9,15.5-0.6,23C543.8,80.8,554.1,84.2,561,77z"/>
<path class="st0" d="M600.8,107.2c-1.7,2.4-2.8,5.1-4.8,6.5c-1.8,1.2-4.6,1.4-6.8,1.2c-1-0.1-2.8-2.6-2.5-3.7
	c0.5-2.2,1.7-5.3,3.4-6.1c9.1-4.4,10-13.8,12.9-21.5c1.1-3-2.7-7.9-4.4-11.9c-3.7-8.8-7.2-17.8-11.3-26.4c-1.1-2.2-3.9-3.6-6.7-6.1
	c0-0.3,0-2,0-3.9c9.1,0,18.2,0,27.7,0c0.1,1.6,0.2,3.4,0.3,5.5c-1.5,0.1-2.7,0-3.9,0.3c-2.6,0.6-4,1.9-2.7,4.9
	c2.8,6.3,5.4,12.7,8.7,20.4c1.4-3,2.3-5,3.2-7c1.7-4,3.2-8,5-12c1.8-4.1,1.2-6.8-4.1-6.6c0-1.9,0-3.5,0-5.5c6.1,0,12.3,0,18.7,0
	c0,1.7,0,3.3,0,5.2c-5.8,0-5.9,5.5-7.5,9c-7,15.1-13.4,30.5-20,45.8C604.1,99.2,602.7,103.1,600.8,107.2z"/>
<path class="st0" d="M670.5,47.6c-1,1.4-2.1,3.3-3,3.2c-1.2-0.1-2.4-1.6-3.4-2.7c-2.3-2.5-4.2-5.7-6.9-7.6c-1.2-0.8-4,0.9-6.1,1.4
	c0.5,1.8,0.4,4.5,1.6,5.4c4.2,3.2,8.7,6.1,13.4,8.5c11.3,5.7,10.9,21.3,2.9,27.1c-4.7,3.5-10,4.6-15.7,4c-4.4-0.5-8.7-1.2-13.6-1.9
	c-0.3-2.1-0.9-5-1.2-8.1c-0.2-3.1,0-6.3,0-9.5c4.5-1.3,6.8-0.6,7.1,4.6c0.3,5.2,9.2,10.1,13.5,7.9c5.5-2.8,5.9-7.6,0.8-10.9
	c-5.1-3.4-10.7-6-15.4-9.8c-5.7-4.7-6.8-10.7-3.6-17.1c2.7-5.5,7.3-8.5,13.8-8.2c5.1,0.2,10.2,0,15.8,0
	C670.5,38.5,670.5,42.8,670.5,47.6z"/>
</svg>
